<?xml version="1.0" encoding="UTF-8" standalone="no"?>
<svg
   xmlns:dc="http://purl.org/dc/elements/1.1/"
   xmlns:cc="http://creativecommons.org/ns#"
   xmlns:rdf="http://www.w3.org/1999/02/22-rdf-syntax-ns#"
   xmlns:svg="http://www.w3.org/2000/svg"
   xmlns="http://www.w3.org/2000/svg"
   xmlns:sodipodi="http://sodipodi.sourceforge.net/DTD/sodipodi-0.dtd"
   xmlns:inkscape="http://www.inkscape.org/namespaces/inkscape"
   class="title"
   viewBox="0 0 1200 400"
   id="svg2"
   version="1.1"
   inkscape:version="0.48.4 r9939"
   width="100%"
   height="100%"
   sodipodi:docname="title.svg">
  <metadata
     id="metadata70">
    <rdf:RDF>
      <cc:Work
         rdf:about="">
        <dc:format>image/svg+xml</dc:format>
        <dc:type
           rdf:resource="http://purl.org/dc/dcmitype/StillImage" />
        <dc:title />
      </cc:Work>
    </rdf:RDF>
  </metadata>
  <defs
     id="defs68" />
  <sodipodi:namedview
     pagecolor="#ffffff"
     bordercolor="#666666"
     borderopacity="1"
     objecttolerance="10"
     gridtolerance="10"
     guidetolerance="10"
     inkscape:pageopacity="0"
     inkscape:pageshadow="2"
     inkscape:window-width="1855"
     inkscape:window-height="1056"
     id="namedview66"
     showgrid="true"
     inkscape:zoom="1.07"
     inkscape:cx="284.4758"
     inkscape:cy="198.62082"
     inkscape:window-x="65"
     inkscape:window-y="24"
     inkscape:window-maximized="1"
     inkscape:current-layer="flowRoot3063">
    <inkscape:grid
       type="xygrid"
       id="grid3047" />
  </sodipodi:namedview>
  <g
     class="mrloh"
     id="g4">
    <g
       transform="matrix(1.1095171,0,0,1.0822275,-269.40767,188.91983)"
       style="font-size:40px;font-style:normal;font-variant:normal;font-weight:normal;font-stretch:normal;line-height:125%;letter-spacing:0px;word-spacing:0px;fill:#000000;fill-opacity:1;stroke:none;font-family:Yanone Kaffeesatz;-inkscape-font-specification:Yanone Kaffeesatz"
       id="flowRoot3063">
      <path
         d="m 517.25353,-139.64154 c -5e-5,-2.9309 0.1628,-5.2106 0.4885,-6.83913 0.32563,-1.62822 1.30265,-2.76807 2.93106,-3.41957 1.79116,-0.81402 4.55937,-1.30252 8.30466,-1.46554 3.74519,-0.16266 9.11877,-0.24408 16.12081,-0.24425 l 0,131.653304 c -7e-5,13.8411269 -2.76828,24.2626529 -8.30465,31.264606 -5.5365,6.839136 -14.98101,10.258698 -28.33356,10.2587 -5.86213,-2e-6 -10.58439,-0.488511 -14.16676,-1.465529 -3.58243,-0.81418 -6.35065,-1.954035 -8.30466,-3.419566 -1.79122,-1.62836 -3.01248,-3.41956 -3.66383,-5.373605 -0.65135,-1.9540281 -0.97703,-3.9894811 -0.97702,-6.1063671 -10e-6,-3.582386 0.40708,-6.513439 1.22128,-8.793171 0.81417,-2.279687 1.62835,-4.315138 2.44255,-6.106368 2.2797,1.79123 5.21074,3.419592 8.79317,4.885094 3.58236,1.465551 7.16476,2.198314 10.74721,2.198294 2.60534,2e-5 4.72222,-0.325652 6.35062,-0.97702 1.62832,-0.651322 2.93101,-1.791177 3.90808,-3.419566 0.97697,-1.628337 1.62832,-3.9080459 1.95403,-6.8391329 0.32562,-2.931021 0.48846,-6.757674 0.48851,-11.479973 l 0,-114.31121"
         style="font-weight:bold;-inkscape-font-specification:Yanone Kaffeesatz Bold"
         id="path3000"
         inkscape:connector-curvature="0" />
      <path
         d="m 559.64317,-146.72493 c 0,-1.62821 0.40708,-2.84949 1.22127,-3.66382 0.97702,-0.81401 2.84964,-1.22111 5.61786,-1.22128 l 23.93696,0 c 5.04789,1.7e-4 10.0144,0.5701 14.89954,1.70979 5.04788,0.97719 9.52587,2.84981 13.434,5.61785 3.90802,2.76839 7.00191,6.67646 9.28169,11.72423 2.44248,4.88525 3.66375,11.31727 3.66383,19.29612 -8e-5,6.18792 -0.65142,11.64293 -1.95405,16.365074 -1.30277,4.722366 -3.09395,8.711858 -5.37359,11.968475 -2.11695,3.256837 -4.5595,5.780802 -7.32765,7.571904 -2.60545,1.791291 -5.21082,2.849732 -7.81615,3.17531 2.93099,0.325768 6.02489,1.05853 9.28167,2.198292 3.41951,0.977111 6.51341,2.768309 9.28169,5.373605 2.76816,2.442631 5.04785,5.943612 6.83914,10.502954 1.79111,4.396655 2.68671,10.177347 2.68679,17.342086 -8e-5,8.141875 -0.81425,15.713764 -2.44254,22.715691 -1.62845,7.0019979 -4.31523,13.1897769 -8.06041,18.5633599 -3.58247,5.210778 -8.30473,9.3631051 -14.16677,12.4569921 -5.69933,2.931057 -12.7013,4.396584 -21.00591,4.396584 l -31.99737,0 0,-166.093217 m 27.84504,62.529206 4.64084,0 c 2.93102,1.05e-4 5.21071,-2.116761 6.83913,-6.350621 1.62833,-4.233638 2.4425,-9.851485 2.44254,-16.853575 -4e-5,-4.23361 -0.2443,-7.65317 -0.73276,-10.2587 -0.48855,-2.76807 -1.1399,-4.88496 -1.95403,-6.35062 -0.6514,-1.46538 -1.46557,-2.44241 -2.44256,-2.93106 -0.97704,-0.48836 -2.03549,-0.73261 -3.17531,-0.73277 l -5.61785,0 0,43.477346 m 0,79.8713019 4.8851,0 c 3.74519,2.2e-5 6.67624,-2.768195 8.79316,-8.3046609 2.27967,-5.699241 3.41951,-13.596802 3.41956,-23.69271 -5e-5,-5.536379 -0.24429,-9.932959 -0.73275,-13.189755 -0.48856,-3.256657 -1.22133,-5.699202 -2.19829,-7.327643 -0.97708,-1.791123 -2.19834,-2.930976 -3.66383,-3.419565 -1.46556,-0.651265 -3.17535,-0.976939 -5.12936,-0.97702 l -5.37359,0 0,56.9113539"
         style="font-weight:bold;-inkscape-font-specification:Yanone Kaffeesatz Bold"
         id="path3002"
         inkscape:connector-curvature="0" />
      <path
         d="m 647.67793,-94.210163 c 4.23372,-2.93094 9.20024,-5.454906 14.89954,-7.571907 5.86207,-2.27958 12.2127,-3.41944 19.05186,-3.41956 6.67625,1.2e-4 11.07282,0.97715 13.18977,2.93106 2.1168,1.95416 3.17524,5.048046 3.17531,9.281682 -7e-5,1.62847 -0.1629,3.908179 -0.48852,6.839128 -0.32574,2.931161 -1.05851,5.94363 -2.19829,9.037425 -1.79125,-0.814083 -3.41962,-1.302599 -4.8851,-1.465524 -1.46558,-0.325578 -2.84968,-0.488409 -4.15233,-0.488515 -1.46557,1.06e-4 -3.17535,0.325768 -5.12936,0.97702 -1.95406,0.651441 -3.74527,1.62846 -5.3736,2.931058 l -0.24425,89.641489 c -4e-5,1.302696 -0.16287,2.279713 -0.48852,2.931056 -0.32569,0.651348 -1.38413,1.139857 -3.17531,1.46553 -1.62838,0.162836 -4.31518,0.325672 -8.06039,0.488508 -3.74527,0 -9.11887,0 -16.12081,0 l 0,-113.57845"
         style="font-weight:bold;-inkscape-font-specification:Yanone Kaffeesatz Bold"
         id="path3004"
         inkscape:connector-curvature="0" />
      <path
         d="m 743.79597,-105.20163 c 9.77014,1.2e-4 17.42345,3.09401 22.95995,9.281686 5.53636,6.187895 8.30458,16.36516 8.30466,30.531838 -8e-5,5.862193 -0.24434,11.968556 -0.73277,18.319105 -0.48858,6.187846 -1.38418,11.642863 -2.68679,16.365067 -2.93113,0.651394 -6.26928,1.221323 -10.01445,1.709783 -3.58247,0.325721 -7.32771,0.651394 -11.23572,0.977018 -3.74529,0.32572 -7.49052,0.569975 -11.23572,0.732765 -3.58243,0.162885 -6.83917,0.244301 -9.77019,0.244255 0.32563,7.816191 1.54692,13.515462 3.66382,17.0978319 2.27969,3.419592 6.35059,5.129373 12.21274,5.129349 4.39655,2.4e-5 8.71171,-0.569903 12.94551,-1.709783 4.39652,-1.302665 8.71168,-3.012446 12.94549,-5.1293489 0.81411,2.4425749 1.38404,5.4550479 1.70978,9.0374259 0.32561,3.41958405 0.48844,6.513474 0.48851,9.281679 -7e-5,2.442558 -0.89566,4.6408481 -2.6868,6.5948771 -1.79126,1.791207 -4.31523,3.338153 -7.57189,4.64084 -3.09395,1.302693 -6.75778,2.279711 -10.99146,2.931058 -4.23381,0.651344 -8.71179,0.977016 -13.43401,0.977019 -5.53647,-3e-6 -10.66583,-0.814185 -15.38805,-2.442548 -4.55944,-1.628363 -8.54894,-4.559416 -11.96849,-8.793171 -3.25673,-4.3965711 -5.86212,-10.34009705 -7.81615,-17.8305951 -1.79121,-7.4904449 -2.6868,-17.0163679 -2.6868,-28.5778039 0,-14.818051 1.13986,-26.705102 3.41957,-35.661191 2.44253,-9.11875 5.61784,-16.120707 9.52592,-21.005907 3.90807,-5.047816 8.46748,-8.385959 13.67828,-10.014439 5.21073,-1.79109 10.66574,-2.68669 16.36506,-2.68681 m -3.66382,23.692713 c -3.74528,9.4e-5 -6.43207,2.686901 -8.06041,8.060405 -1.6284,5.373691 -2.60541,13.678345 -2.93106,24.913982 3.41954,7e-5 6.8391,-0.162767 10.25871,-0.488508 3.41952,-0.325605 6.02491,-0.895532 7.81615,-1.709785 0.48846,-1.465456 0.81414,-3.419492 0.97702,-5.862114 0.16277,-2.605305 0.2442,-4.885014 0.24425,-6.839132 -5e-5,-3.907988 -0.16288,-7.001878 -0.48851,-9.28168 -0.32572,-2.442452 -0.81424,-4.31507 -1.46553,-5.617857 -0.65138,-1.302598 -1.54699,-2.116777 -2.6868,-2.442545 -0.97706,-0.488409 -2.19833,-0.732672 -3.66382,-0.732766"
         style="font-weight:bold;-inkscape-font-specification:Yanone Kaffeesatz Bold"
         id="path3006"
         inkscape:connector-curvature="0" />
      <path
         d="m 787.93357,-97.141219 c 1.95403,-0.976906 4.39658,-1.872505 7.32765,-2.686801 3.09387,-0.9769 6.35059,-1.8725 9.77018,-2.6868 3.58237,-0.81407 7.16479,-1.46541 10.74722,-1.95404 3.58236,-0.48839 6.9205,-0.73265 10.01444,-0.73277 6.18774,1.2e-4 11.47991,0.48863 15.87656,1.46553 4.3965,0.97715 7.97891,2.68693 10.74721,5.129343 2.93098,2.442676 5.04784,5.699397 6.35061,9.770203 1.46545,4.071011 2.19821,9.11894 2.1983,15.143781 l 0,88.175966 c -9e-5,1.302696 -0.16293,2.279713 -0.48851,2.931056 -0.32575,0.651348 -1.4656,1.139857 -3.41957,1.46553 -1.79127,0.162836 -4.64091,0.325672 -8.54891,0.488508 -3.74531,0 -9.03749,0 -15.87657,0 l 0,-84.512138 c -6e-5,-6.350532 -0.48854,-10.665697 -1.46551,-12.945503 -0.97708,-2.442449 -3.17537,-3.663721 -6.59489,-3.663815 -3.58244,9.4e-5 -6.67633,0.977114 -9.28168,2.931047 l 0,93.305315 c -3e-5,1.302696 -0.16286,2.279713 -0.4885,2.931056 -0.32571,0.651348 -1.38415,1.139857 -3.17531,1.46553 -1.6284,0.162836 -4.31521,0.325672 -8.06042,0.488508 -3.74525,0 -8.95602,0 -15.6323,0 l 0,-116.509506"
         style="font-weight:bold;-inkscape-font-specification:Yanone Kaffeesatz Bold"
         id="path3008"
         inkscape:connector-curvature="0" />
      <path
         d="m 876.18967,-97.141219 c 1.95404,-0.976906 4.39658,-1.872505 7.32764,-2.686801 3.09389,-0.9769 6.35062,-1.8725 9.7702,-2.6868 3.58237,-0.81407 7.16477,-1.46541 10.74721,-1.95404 3.58235,-0.48839 6.9205,-0.73265 10.01443,-0.73277 6.18774,1.2e-4 11.47993,0.48863 15.87657,1.46553 4.39652,0.97715 7.97892,2.68693 10.7472,5.129343 2.93099,2.442676 5.04786,5.699397 6.35062,9.770203 1.46546,4.071011 2.19822,9.11894 2.1983,15.143781 l 0,88.175966 c -8e-5,1.302696 -0.16292,2.279713 -0.4885,2.931056 -0.32575,0.651348 -1.46562,1.139857 -3.41958,1.46553 -1.79128,0.162836 -4.64091,0.325672 -8.54891,0.488508 -3.74531,0 -9.03748,0 -15.87657,0 l 0,-84.512138 c -3e-5,-6.350532 -0.48855,-10.665697 -1.46552,-12.945503 -0.97707,-2.442449 -3.17536,-3.663721 -6.59487,-3.663815 -3.58243,9.4e-5 -6.67633,0.977114 -9.28169,2.931047 l 0,93.305315 c -3e-5,1.302696 -0.16286,2.279713 -0.48851,2.931056 -0.3257,0.651348 -1.38414,1.139857 -3.17531,1.46553 -1.62838,0.162836 -4.31519,0.325672 -8.0604,0.488508 -3.74526,0 -8.95602,0 -15.63231,0 l 0,-116.509506"
         style="font-weight:bold;-inkscape-font-specification:Yanone Kaffeesatz Bold"
         id="path3010"
         inkscape:connector-curvature="0" />
      <path
         d="m 985.84881,10.242887 c 0,-0.8963701 0.31632,-1.6609231 0.94913,-2.2936621 0.63273,-0.659093 1.39725,-0.988642 2.29365,-0.988647 0.8963,5e-6 1.66091,0.329554 2.29364,0.988647 0.65913,0.632739 0.98861,1.397292 0.98861,2.2936621 0,0.870011 -0.32948,1.647745 -0.98861,2.333206 -0.65915,0.659096 -1.42366,0.988647 -2.29364,0.988647 -0.87008,0 -1.6346,-0.329551 -2.29365,-0.988647 -0.63281,-0.685461 -0.94913,-1.463195 -0.94913,-2.333206"
         style="font-size:136.88787842px;font-style:normal;font-variant:normal;font-weight:normal;font-stretch:normal;font-family:Sawasdee;-inkscape-font-specification:Sawasdee"
         id="path3012"
         inkscape:connector-curvature="0" />
      <path
         d="m 1007.9753,-83.355263 c 0,-1.697994 0.5917,-3.164517 1.7753,-4.399597 1.2349,-1.234867 2.7272,-1.852353 4.4766,-1.852461 1.6982,1.08e-4 3.1389,0.617594 4.3226,1.852461 1.2349,1.23508 1.8523,2.701603 1.8525,4.399597 -2e-4,1.749644 -0.5919,3.241904 -1.7754,4.476781 -1.1835,1.183607 -2.65,1.775367 -4.3997,1.775273 -1.7494,9.4e-5 -3.2417,-0.591666 -4.4766,-1.775273 -1.1836,-1.234877 -1.7753,-2.727137 -1.7753,-4.476781 m 9.7253,96.791113 -6.9466,0 0,-78.266498 6.9466,0 0,78.266498"
         style="font-size:136.88787842px;font-style:normal;font-variant:normal;font-weight:normal;font-stretch:normal;font-family:Sawasdee;-inkscape-font-specification:Sawasdee"
         id="path3014"
         inkscape:connector-curvature="0" />
      <path
         d="m 1074.1584,-64.710273 c 5.2371,7.7e-5 10.2497,1.022564 15.0379,3.067464 4.7883,2.045047 8.9282,4.813242 12.4195,8.304594 3.4913,3.491484 6.2595,7.656246 8.3046,12.494299 2.0449,4.838162 3.0674,9.900718 3.0675,15.187684 -10e-5,5.336919 -1.0226,10.424414 -3.0675,15.262498 -2.0451,4.8381309 -4.8133,9.0028929 -8.3046,12.4942999 -3.4913,3.441551 -7.6312,6.209746 -12.4195,8.3045951 -4.7882,2.044976 -9.8008,3.067461 -15.0379,3.067463 -10.7236,-2e-6 -19.8762,-3.8156211 -27.4575,-11.4468741 -7.5815,-7.631232 -11.3721,-16.8585489 -11.3721,-27.6819819 0,-7.082553 1.7207,-13.616492 5.1623,-19.601836 3.4914,-6.035109 8.2048,-10.773461 14.1402,-14.215072 5.9853,-3.491348 12.4944,-5.237056 19.5271,-5.237133 m -32.171,39.054041 c 0,8.928091 3.1423,16.5842709 9.4268,22.9685629 6.3344,6.334444 13.9656,9.50166 22.8938,9.501654 8.9281,6e-6 16.5341,-3.16721 22.8188,-9.501654 6.3346,-6.384292 9.5016,-14.0404719 9.5017,-22.9685629 -10e-5,-8.878139 -3.1671,-16.484442 -9.5017,-22.818932 -6.2847,-6.334367 -13.8907,-9.501582 -22.8188,-9.501652 -8.9282,7e-5 -16.5594,3.167285 -22.8938,9.501652 -6.2845,6.33449 -9.4268,13.940793 -9.4268,22.818932"
         style="font-size:136.88787842px;font-style:normal;font-variant:normal;font-weight:normal;font-stretch:normal;font-family:Sawasdee;-inkscape-font-specification:Sawasdee"
         id="path3016"
         inkscape:connector-curvature="0" />
      <g
         transform="matrix(0.901293,0,0,0.92402013,569.13965,-404.78605)"
         style="line-height:125%;fill:#000000;font-family:Yanone Kaffeesatz;-inkscape-font-specification:Yanone Kaffeesatz"
         id="flowRoot3011">
        <path
           d="m 33.0735,523.32677 0,82.944 c -3.5e-5,0.768 -0.09604,1.344 -0.288,1.728 -0.192035,0.384 -0.816034,0.672 -1.872,0.864 -0.960032,0.096 -2.54403,0.192 -4.752,0.288 -2.208026,0 -5.280023,0 -9.216,0 l 0,-85.824 -17.568,0 0,-12.096 c -1.44e-6,-1.9199 0.9599976,-2.8799 2.88,-2.88 l 48.96,0 0,12.096 c -5.3e-5,1.15209 -0.240053,1.92009 -0.72,2.304 -0.384052,0.38409 -1.104051,0.57609 -2.16,0.576 l -15.264,0"
           style="font-weight:bold;-inkscape-font-specification:Yanone Kaffeesatz Bold"
           id="path3007" />
        <path
           d="m 58.97325,510.79877 c -6e-6,-0.3839 0.09599,-0.7679 0.288,-1.152 0.191993,-0.2879 0.431993,-0.5759 0.72,-0.864 0.287993,-0.2879 0.767992,-0.4319 1.44,-0.432 l 14.256,0 c 9.119968,10e-5 15.791961,2.2561 20.016,6.768 4.31995,4.41609 6.47995,11.66408 6.48,21.744 -5e-5,7.77606 -1.15205,13.92006 -3.456,18.432 -2.304044,4.41605 -5.328041,7.68005 -9.072,9.792 1.151962,1.44004 2.399961,3.36004 3.744,5.76 1.439958,2.40004 2.831957,5.28003 4.176,8.64 1.343954,3.36003 2.49595,7.29602 3.456,11.808 1.05595,4.51201 1.77595,9.60001 2.16,15.264 -5e-5,1.056 -0.28805,1.824 -0.864,2.304 -0.57605,0.384 -2.25605,0.576 -5.04,0.576 -0.960044,0 -2.016042,-0.048 -3.168,-0.144 -1.15204,0 -2.400039,-0.048 -3.744,-0.144 -0.384037,-6.04799 -1.056037,-11.37599 -2.016,-15.984 -0.960035,-4.60798 -2.016034,-8.54398 -3.168,-11.808 -1.152031,-3.35997 -2.35203,-6.09597 -3.6,-8.208 -1.152028,-2.20796 -2.160027,-3.88796 -3.024,-5.04 -0.480025,0.096 -0.960025,0.14404 -1.44,0.144 -0.480024,4e-5 -0.960023,4e-5 -1.44,0 l -5.04,0 0,38.592 c -1.8e-5,0.576 -0.09602,1.056 -0.288,1.44 -0.09602,0.288 -0.528017,0.528 -1.296,0.72 -0.672016,0.096 -1.824014,0.144 -3.456,0.144 -1.536011,0 -3.744009,0 -6.624,0 l 0,-98.352 m 30.24,25.488 c -3.6e-5,-5.47192 -0.816036,-9.79192 -2.448,-12.96 -1.632032,-3.16791 -4.608029,-4.75191 -8.928,-4.752 l -7.2,0 0,38.88 6.336,0 c 4.031972,5e-5 7.055969,-1.58395 9.072,-4.752 2.111965,-3.26394 3.167964,-8.73594 3.168,-16.416"
           style="font-size:144px"
           id="path3009" />
        <path
           d="m 112.692,513.67877 c -10e-6,-1.3439 0.048,-2.3519 0.144,-3.024 0.19199,-0.7679 0.62399,-1.2959 1.296,-1.584 0.76799,-0.3839 1.96799,-0.5759 3.6,-0.576 1.63199,-0.0959 3.88798,-0.1439 6.768,-0.144 l 0,98.496 c -2e-5,0.576 -0.096,1.056 -0.288,1.44 -0.096,0.288 -0.52802,0.528 -1.296,0.72 -0.67202,0.096 -1.82401,0.144 -3.456,0.144 -1.63201,0 -3.88801,0 -6.768,0 l 0,-95.472"
           style="font-size:144px"
           id="path3011" />
        <path
           d="m 131.6955,511.80677 c -0.288,-1.2479 -0.336,-2.1119 -0.144,-2.592 0.192,-0.5759 1.104,-0.8639 2.736,-0.864 l 9.504,0 11.952,55.728 c 1.24797,6.43204 2.30397,12.76803 3.168,19.008 0.95997,6.14402 1.82397,11.52001 2.592,16.128 0.57597,-4.60799 1.29597,-10.03198 2.16,-16.272 0.86397,-6.23997 1.87197,-12.52796 3.024,-18.864 l 10.656,-52.272 c 0.19195,-1.1519 0.47995,-2.0159 0.864,-2.592 0.38395,-0.5759 1.10395,-0.8639 2.16,-0.864 l 10.224,0 -22.176,101.232 c -1.63204,0.192 -3.12003,0.336 -4.464,0.432 -1.34403,0.096 -3.12003,0.144 -5.328,0.144 -1.92003,0 -3.40802,-0.768 -4.464,-2.304 -1.05602,-1.536 -1.87202,-3.552 -2.448,-6.048 -0.76802,-2.87999 -1.63202,-6.38399 -2.592,-10.512 -0.96002,-4.22398 -1.96802,-8.68797 -3.024,-13.392 -1.05601,-4.79996 -2.16001,-9.74396 -3.312,-14.832 -1.15201,-5.18395 -2.25601,-10.22394 -3.312,-15.12 -2.49601,-11.51993 -5.088,-23.56792 -7.776,-36.144"
           style="font-size:144px"
           id="path3013" />
        <path
           d="m 197.34825,513.67877 c -1e-5,-1.3439 0.048,-2.3519 0.144,-3.024 0.19199,-0.7679 0.62399,-1.2959 1.296,-1.584 0.76799,-0.3839 1.96799,-0.5759 3.6,-0.576 1.63199,-0.0959 3.88798,-0.1439 6.768,-0.144 l 0,98.496 c -2e-5,0.576 -0.096,1.056 -0.288,1.44 -0.096,0.288 -0.52802,0.528 -1.296,0.72 -0.67202,0.096 -1.82401,0.144 -3.456,0.144 -1.63201,0 -3.88801,0 -6.768,0 l 0,-95.472"
           style="font-size:144px"
           id="path3015" />
        <path
           d="m 259.26375,583.51877 -24.768,0 -5.616,23.616 c -0.19201,0.768 -0.57601,1.344 -1.152,1.728 -0.57601,0.384 -2.01601,0.576 -4.32,0.576 -0.76801,0 -1.87201,-0.048 -3.312,-0.144 -1.344,0 -2.688,-0.096 -4.032,-0.288 l 25.632,-99.072 c 0.28797,-1.3439 1.77597,-2.0159 4.464,-2.016 2.20797,1e-4 4.03197,0.1441 5.472,0.432 l 25.776,98.64 c 0.19194,0.768 -0.0481,1.392 -0.72,1.872 -0.57606,0.384 -2.01606,0.576 -4.32,0.576 -0.86406,0 -1.87206,0 -3.024,0 -1.15205,0 -2.44805,-0.096 -3.888,-0.288 l -6.192,-25.632 m -22.32,-10.656 19.872,0 -4.896,-20.448 c -0.57604,-2.39994 -1.15204,-4.84794 -1.728,-7.344 -0.48003,-2.49593 -0.96003,-4.94393 -1.44,-7.344 -0.38403,-2.49593 -0.76803,-4.84792 -1.152,-7.056 -0.28803,-2.20792 -0.52803,-4.17592 -0.72,-5.904 -0.19203,1.72808 -0.48003,3.69608 -0.864,5.904 -0.38403,2.20808 -0.81603,4.51207 -1.296,6.912 -0.38403,2.40007 -0.81603,4.89607 -1.296,7.488 -0.48003,2.49606 -1.00803,4.94406 -1.584,7.344 l -4.896,20.448"
           style="font-size:144px"
           id="path3017" />
        <path
           d="m 296.34375,598.20677 24.768,0 0,8.64 c -4e-5,0.96 -0.24004,1.584 -0.72,1.872 -0.38404,0.288 -0.96004,0.432 -1.728,0.432 l -34.128,0 0,-97.488 c -1e-5,-0.8639 0.048,-1.4879 0.144,-1.872 0.19199,-0.4799 0.67199,-0.8159 1.44,-1.008 0.76799,-0.1919 1.91999,-0.2879 3.456,-0.288 1.63199,-0.0959 3.88798,-0.1439 6.768,-0.144 l 0,89.856"
           style="font-size:144px"
           id="path3019" />
        <path
           d="m 364.98225,606.84677 c -2e-5,0.576 -0.096,1.056 -0.288,1.44 -0.096,0.288 -0.52802,0.528 -1.296,0.72 -0.76802,0.096 -1.96802,0.144 -3.6,0.144 -1.53601,0 -3.79201,0 -6.768,0 l 0,-66.672 c -1e-5,-1.34393 0.14399,-2.35193 0.432,-3.024 0.38399,-0.76793 1.00799,-1.29593 1.872,-1.584 0.95999,-0.38393 2.20799,-0.57593 3.744,-0.576 1.53599,-0.0959 3.50398,-0.14393 5.904,-0.144 l 0,69.696 m -11.808,-92.592 c 0.096,-2.5919 0.67199,-4.6559 1.728,-6.192 1.05599,-1.6319 2.73599,-2.4479 5.04,-2.448 2.20798,10e-5 3.74398,0.6241 4.608,1.872 0.86398,1.2481 1.24798,3.4081 1.152,6.48 -2e-5,2.97609 -0.57602,5.28009 -1.728,6.912 -1.05602,1.63209 -2.68801,2.44809 -4.896,2.448 -1.92001,9e-5 -3.40801,-0.67191 -4.464,-2.016 -0.96001,-1.34391 -1.44001,-3.69591 -1.44,-7.056"
           style="font-size:144px"
           id="path3021" />
        <path
           d="m 384.10275,547.23077 -9.792,0 c 0,-2.20794 0,-3.98393 0,-5.328 0.096,-1.34393 0.192,-2.35193 0.288,-3.024 0.192,-0.76793 0.48,-1.24793 0.864,-1.44 0.384,-0.19193 0.864,-0.28793 1.44,-0.288 l 7.2,0 0,-21.888 c -1e-5,-0.95991 0.14399,-1.7279 0.432,-2.304 0.38399,-0.5759 1.00799,-0.9599 1.872,-1.152 0.86398,-0.2879 2.06398,-0.4319 3.6,-0.432 1.53598,-0.0959 3.50398,-0.1439 5.904,-0.144 l 0,25.92 14.688,0 c -4e-5,2.30407 -0.048,4.12807 -0.144,5.472 -4e-5,1.24806 -0.096,2.25606 -0.288,3.024 -0.096,0.67206 -0.28804,1.10406 -0.576,1.296 -0.28804,0.19206 -0.72004,0.28806 -1.296,0.288 l -12.384,0 0,41.904 c -2e-5,1.53602 -2e-5,3.02402 0,4.464 0.096,1.34401 0.28798,2.54401 0.576,3.6 0.38397,0.96001 0.91197,1.77601 1.584,2.448 0.67197,0.57601 1.67997,0.86401 3.024,0.864 1.63197,10e-6 3.07197,-0.14399 4.32,-0.432 1.24797,-0.38399 2.59196,-0.95999 4.032,-1.728 0.19196,0.76801 0.38396,1.63201 0.576,2.592 0.19196,0.96001 0.28796,2.01601 0.288,3.168 -4e-5,1.344 -0.38404,2.448 -1.152,3.312 -0.76804,0.768 -1.77604,1.392 -3.024,1.872 -1.15203,0.48 -2.44803,0.816 -3.888,1.008 -1.44003,0.192 -2.88003,0.288 -4.32,0.288 -3.07202,0 -5.52002,-0.48 -7.344,-1.44 -1.82402,-1.056 -3.21602,-2.496 -4.176,-4.32 -0.96001,-1.91999 -1.58401,-4.17599 -1.872,-6.768 -0.28801,-2.68799 -0.43201,-5.66398 -0.432,-8.928 l 0,-41.904"
           style="font-size:144px"
           id="path3023" />
        <path
           d="m 432.201,606.84677 c -2e-5,0.576 -0.096,1.056 -0.288,1.44 -0.096,0.288 -0.52802,0.528 -1.296,0.72 -0.76802,0.096 -1.96802,0.144 -3.6,0.144 -1.53601,0 -3.79201,0 -6.768,0 l 0,-66.672 c -1e-5,-1.34393 0.14399,-2.35193 0.432,-3.024 0.38399,-0.76793 1.00799,-1.29593 1.872,-1.584 0.95999,-0.38393 2.20799,-0.57593 3.744,-0.576 1.53599,-0.0959 3.50398,-0.14393 5.904,-0.144 l 0,69.696 m -11.808,-92.592 c 0.096,-2.5919 0.67199,-4.6559 1.728,-6.192 1.05599,-1.6319 2.73599,-2.4479 5.04,-2.448 2.20798,10e-5 3.74398,0.6241 4.608,1.872 0.86398,1.2481 1.24798,3.4081 1.152,6.48 -2e-5,2.97609 -0.57602,5.28009 -1.728,6.912 -1.05602,1.63209 -2.68801,2.44809 -4.896,2.448 -1.92001,9e-5 -3.40801,-0.67191 -4.464,-2.016 -0.96001,-1.34391 -1.44001,-3.69591 -1.44,-7.056"
           style="font-size:144px"
           id="path3025" />
        <path
           d="m 468.8895,535.71077 c 12.19196,7e-5 18.28795,7.72807 18.288,23.184 -5e-5,3.16805 -0.14405,6.43204 -0.432,9.792 -0.19205,3.36004 -0.57605,6.33603 -1.152,8.928 -2.49604,0.48003 -5.13604,0.86403 -7.92,1.152 -2.78404,0.28803 -5.56803,0.52803 -8.352,0.72 -2.68803,0.19203 -5.23203,0.33603 -7.632,0.432 -2.40002,3e-5 -4.46402,3e-5 -6.192,0 0.096,3.84002 0.43198,7.00802 1.008,9.504 0.67198,2.49602 1.53598,4.46401 2.592,5.904 1.05598,1.44001 2.39998,2.44801 4.032,3.024 1.63197,0.57601 3.55197,0.86401 5.76,0.864 2.87997,10e-6 5.71196,-0.38399 8.496,-1.152 2.78396,-0.86399 5.42396,-1.96799 7.92,-3.312 0.38395,1.05601 0.62395,2.35201 0.72,3.888 0.19195,1.53601 0.28795,2.88001 0.288,4.032 -5e-5,1.152 -0.52805,2.208 -1.584,3.168 -1.05604,0.96 -2.49604,1.824 -4.32,2.592 -1.82404,0.672 -3.93604,1.2 -6.336,1.584 -2.40003,0.384 -4.94403,0.576 -7.632,0.576 -3.36002,0 -6.48002,-0.432 -9.36,-1.296 -2.78402,-0.864 -5.18401,-2.496 -7.2,-4.896 -2.01601,-2.49599 -3.60001,-5.95199 -4.752,-10.368 -1.15201,-4.41598 -1.728,-10.12798 -1.728,-17.136 0,-9.02396 0.71999,-16.22395 2.16,-21.6 1.53599,-5.47194 3.45599,-9.64794 5.76,-12.528 2.39999,-2.87993 5.13598,-4.75193 8.208,-5.616 3.07198,-0.95993 6.19197,-1.43993 9.36,-1.44 m -1.296,10.224 c -1.44003,6e-5 -2.83203,0.38406 -4.176,1.152 -1.34402,0.67206 -2.59202,1.96806 -3.744,3.888 -1.05602,1.82406 -1.96802,4.32005 -2.736,7.488 -0.67202,3.07205 -1.10402,7.05604 -1.296,11.952 1.34398,4e-5 2.87998,4e-5 4.608,0 1.72798,4e-5 3.45598,-0.048 5.184,-0.144 1.82397,-0.19196 3.55197,-0.38396 5.184,-0.576 1.72797,-0.19196 3.21597,-0.47996 4.464,-0.864 0.28796,-1.34396 0.47996,-2.78396 0.576,-4.32 0.096,-1.53595 0.14396,-2.97595 0.144,-4.32 -0.096,-5.18395 -0.72004,-8.83194 -1.872,-10.944 -1.15203,-2.20794 -3.26403,-3.31194 -6.336,-3.312"
           style="font-size:144px"
           id="path3027" />
        <path
           d="m 518.90475,535.71077 c 3.74397,7e-5 6.76797,0.28807 9.072,0.864 2.39996,0.57607 4.27196,1.29607 5.616,2.16 1.34396,0.76807 2.25596,1.63207 2.736,2.592 0.47995,0.96007 0.71995,1.77607 0.72,2.448 -5e-5,2.01606 -0.86405,3.98406 -2.592,5.904 -4.12804,-2.49594 -8.83203,-3.74394 -14.112,-3.744 -3.36003,6e-5 -6.09602,0.62406 -8.208,1.872 -2.11202,1.15206 -3.16802,2.83206 -3.168,5.04 -2e-5,1.34405 0.33598,2.68805 1.008,4.032 0.67198,1.24805 2.25598,2.88005 4.752,4.896 l 13.392,10.8 c 3.07196,3.07203 5.23196,5.95203 6.48,8.64 1.34396,2.59202 2.01595,5.71202 2.016,9.36 -5e-5,6.43201 -2.11204,11.37601 -6.336,14.832 -4.22404,3.456 -10.03203,5.184 -17.424,5.184 -5.18402,0 -9.40801,-0.576 -12.672,-1.728 -3.26401,-1.248 -4.896,-3.12 -4.896,-5.616 0,-0.86399 0.144,-1.87199 0.432,-3.024 0.28799,-1.15199 0.81599,-2.39999 1.584,-3.744 4.12799,2.40001 8.92798,3.60001 14.4,3.6 3.64798,1e-5 6.47997,-0.76799 8.496,-2.304 2.11197,-1.53599 3.16797,-3.74399 3.168,-6.624 -3e-5,-1.91998 -0.43203,-3.79198 -1.296,-5.616 -0.76803,-1.82398 -2.25603,-3.69597 -4.464,-5.616 l -13.968,-11.952 c -3.26401,-2.68796 -5.47201,-5.27995 -6.624,-7.776 -1.056,-2.59195 -1.584,-5.08795 -1.584,-7.488 0,-4.99194 1.87199,-9.07194 5.616,-12.24 3.83999,-3.16793 9.79198,-4.75193 17.856,-4.752"
           style="font-size:144px"
           id="path3029" />
      </g>
    </g>
    <text
       xml:space="preserve"
       style="font-size:40px;font-style:normal;font-variant:normal;font-weight:normal;font-stretch:normal;line-height:125%;letter-spacing:0px;word-spacing:0px;fill:#000000;fill-opacity:1;stroke:none;font-family:Yanone Kaffeesatz;-inkscape-font-specification:Yanone Kaffeesatz"
       x="717.75702"
       y="-28.971964"
       id="text3071"
       sodipodi:linespacing="125%"><tspan
         sodipodi:role="line"
         id="tspan3073"
         x="717.75702"
         y="-28.971964" /></text>
  </g>
  <flowRoot
     xml:space="preserve"
     id="flowRoot3049"
     style="font-size:200px;font-style:normal;font-variant:normal;font-weight:normal;font-stretch:normal;text-align:center;line-height:125%;letter-spacing:0px;word-spacing:0px;text-anchor:middle;fill:#000000;fill-opacity:1;stroke:none;font-family:Yanone Kaffeesatz;-inkscape-font-specification:Yanone Kaffeesatz"
     transform="translate(-73.640625,-57.884749)"><flowRegion
       id="flowRegion3051"><rect
         id="rect3053"
         width="992.71027"
         height="303.83179"
         x="167.28972"
         y="-173.83177"
         style="font-size:200px;text-align:center;text-anchor:middle" /></flowRegion><flowPara
       id="flowPara3055"
       style="font-size:200px;-inkscape-font-specification:Ubuntu;font-family:Ubuntu;font-weight:normal;font-style:normal;font-stretch:normal;font-variant:normal"><flowSpan
         style="-inkscape-font-specification:URW Bookman L;font-family:URW Bookman L;font-weight:normal;font-style:normal;font-stretch:normal;font-variant:normal"
         id="flowSpan3057">JBrenn</flowSpan><flowSpan
         style="-inkscape-font-specification:Ume Gothic;font-family:Ume Gothic;font-weight:normal;font-style:normal;font-stretch:normal;font-variant:normal"
         id="flowSpan3061">.io</flowSpan></flowPara></flowRoot></svg>
