<?xml version="1.0" encoding="UTF-8" standalone="no"?>
<svg
   xmlns:dc="http://purl.org/dc/elements/1.1/"
   xmlns:cc="http://creativecommons.org/ns#"
   xmlns:rdf="http://www.w3.org/1999/02/22-rdf-syntax-ns#"
   xmlns:svg="http://www.w3.org/2000/svg"
   xmlns="http://www.w3.org/2000/svg"
   xmlns:sodipodi="http://sodipodi.sourceforge.net/DTD/sodipodi-0.dtd"
   xmlns:inkscape="http://www.inkscape.org/namespaces/inkscape"
   class="title"
   viewBox="0 0 1200 400"
   id="svg2"
   version="1.1"
   inkscape:version="0.48.4 r9939"
   width="100%"
   height="100%"
   sodipodi:docname="title_old.svg">
  <metadata
     id="metadata70">
    <rdf:RDF>
      <cc:Work
         rdf:about="">
        <dc:format>image/svg+xml</dc:format>
        <dc:type
           rdf:resource="http://purl.org/dc/dcmitype/StillImage" />
        <dc:title></dc:title>
      </cc:Work>
    </rdf:RDF>
  </metadata>
  <defs
     id="defs68" />
  <sodipodi:namedview
     pagecolor="#ffffff"
     bordercolor="#666666"
     borderopacity="1"
     objecttolerance="10"
     gridtolerance="10"
     guidetolerance="10"
     inkscape:pageopacity="0"
     inkscape:pageshadow="2"
     inkscape:window-width="1855"
     inkscape:window-height="1056"
     id="namedview66"
     showgrid="true"
     inkscape:zoom="1.07"
     inkscape:cx="284.4758"
     inkscape:cy="198.62082"
     inkscape:window-x="65"
     inkscape:window-y="24"
     inkscape:window-maximized="1"
     inkscape:current-layer="flowRoot3063">
    <inkscape:grid
       type="xygrid"
       id="grid3047" />
  </sodipodi:namedview>
  <g
     class="mrloh"
     id="g4">
    <g
       transform="matrix(1.1095171,0,0,1.0822275,-269.40767,188.91983)"
       style="font-size:40px;font-style:normal;font-variant:normal;font-weight:normal;font-stretch:normal;line-height:125%;letter-spacing:0px;word-spacing:0px;fill:#000000;fill-opacity:1;stroke:none;font-family:Yanone Kaffeesatz;-inkscape-font-specification:Yanone Kaffeesatz"
       id="flowRoot3063">
      <path
         d="m 517.25353,-139.64154 c -5e-5,-2.9309 0.1628,-5.2106 0.4885,-6.83913 0.32563,-1.62822 1.30265,-2.76807 2.93106,-3.41957 1.79116,-0.81402 4.55937,-1.30252 8.30466,-1.46554 3.74519,-0.16266 9.11877,-0.24408 16.12081,-0.24425 l 0,131.653304 c -7e-5,13.8411269 -2.76828,24.2626529 -8.30465,31.264606 -5.5365,6.839136 -14.98101,10.258698 -28.33356,10.2587 -5.86213,-2e-6 -10.58439,-0.488511 -14.16676,-1.465529 -3.58243,-0.81418 -6.35065,-1.954035 -8.30466,-3.419566 -1.79122,-1.62836 -3.01248,-3.41956 -3.66383,-5.373605 -0.65135,-1.9540281 -0.97703,-3.9894811 -0.97702,-6.1063671 -10e-6,-3.582386 0.40708,-6.513439 1.22128,-8.793171 0.81417,-2.279687 1.62835,-4.315138 2.44255,-6.106368 2.2797,1.79123 5.21074,3.419592 8.79317,4.885094 3.58236,1.465551 7.16476,2.198314 10.74721,2.198294 2.60534,2e-5 4.72222,-0.325652 6.35062,-0.97702 1.62832,-0.651322 2.93101,-1.791177 3.90808,-3.419566 0.97697,-1.628337 1.62832,-3.9080459 1.95403,-6.8391329 0.32562,-2.931021 0.48846,-6.757674 0.48851,-11.479973 l 0,-114.31121"
         style="font-weight:bold;-inkscape-font-specification:Yanone Kaffeesatz Bold"
         id="path3000"
         inkscape:connector-curvature="0" />
      <path
         d="m 559.64317,-146.72493 c 0,-1.62821 0.40708,-2.84949 1.22127,-3.66382 0.97702,-0.81401 2.84964,-1.22111 5.61786,-1.22128 l 23.93696,0 c 5.04789,1.7e-4 10.0144,0.5701 14.89954,1.70979 5.04788,0.97719 9.52587,2.84981 13.434,5.61785 3.90802,2.76839 7.00191,6.67646 9.28169,11.72423 2.44248,4.88525 3.66375,11.31727 3.66383,19.29612 -8e-5,6.18792 -0.65142,11.64293 -1.95405,16.365074 -1.30277,4.722366 -3.09395,8.711858 -5.37359,11.968475 -2.11695,3.256837 -4.5595,5.780802 -7.32765,7.571904 -2.60545,1.791291 -5.21082,2.849732 -7.81615,3.17531 2.93099,0.325768 6.02489,1.05853 9.28167,2.198292 3.41951,0.977111 6.51341,2.768309 9.28169,5.373605 2.76816,2.442631 5.04785,5.943612 6.83914,10.502954 1.79111,4.396655 2.68671,10.177347 2.68679,17.342086 -8e-5,8.141875 -0.81425,15.713764 -2.44254,22.715691 -1.62845,7.0019979 -4.31523,13.1897769 -8.06041,18.5633599 -3.58247,5.210778 -8.30473,9.3631051 -14.16677,12.4569921 -5.69933,2.931057 -12.7013,4.396584 -21.00591,4.396584 l -31.99737,0 0,-166.093217 m 27.84504,62.529206 4.64084,0 c 2.93102,1.05e-4 5.21071,-2.116761 6.83913,-6.350621 1.62833,-4.233638 2.4425,-9.851485 2.44254,-16.853575 -4e-5,-4.23361 -0.2443,-7.65317 -0.73276,-10.2587 -0.48855,-2.76807 -1.1399,-4.88496 -1.95403,-6.35062 -0.6514,-1.46538 -1.46557,-2.44241 -2.44256,-2.93106 -0.97704,-0.48836 -2.03549,-0.73261 -3.17531,-0.73277 l -5.61785,0 0,43.477346 m 0,79.8713019 4.8851,0 c 3.74519,2.2e-5 6.67624,-2.768195 8.79316,-8.3046609 2.27967,-5.699241 3.41951,-13.596802 3.41956,-23.69271 -5e-5,-5.536379 -0.24429,-9.932959 -0.73275,-13.189755 -0.48856,-3.256657 -1.22133,-5.699202 -2.19829,-7.327643 -0.97708,-1.791123 -2.19834,-2.930976 -3.66383,-3.419565 -1.46556,-0.651265 -3.17535,-0.976939 -5.12936,-0.97702 l -5.37359,0 0,56.9113539"
         style="font-weight:bold;-inkscape-font-specification:Yanone Kaffeesatz Bold"
         id="path3002"
         inkscape:connector-curvature="0" />
      <path
         d="m 647.67793,-94.210163 c 4.23372,-2.93094 9.20024,-5.454906 14.89954,-7.571907 5.86207,-2.27958 12.2127,-3.41944 19.05186,-3.41956 6.67625,1.2e-4 11.07282,0.97715 13.18977,2.93106 2.1168,1.95416 3.17524,5.048046 3.17531,9.281682 -7e-5,1.62847 -0.1629,3.908179 -0.48852,6.839128 -0.32574,2.931161 -1.05851,5.94363 -2.19829,9.037425 -1.79125,-0.814083 -3.41962,-1.302599 -4.8851,-1.465524 -1.46558,-0.325578 -2.84968,-0.488409 -4.15233,-0.488515 -1.46557,1.06e-4 -3.17535,0.325768 -5.12936,0.97702 -1.95406,0.651441 -3.74527,1.62846 -5.3736,2.931058 l -0.24425,89.641489 c -4e-5,1.302696 -0.16287,2.279713 -0.48852,2.931056 -0.32569,0.651348 -1.38413,1.139857 -3.17531,1.46553 -1.62838,0.162836 -4.31518,0.325672 -8.06039,0.488508 -3.74527,0 -9.11887,0 -16.12081,0 l 0,-113.57845"
         style="font-weight:bold;-inkscape-font-specification:Yanone Kaffeesatz Bold"
         id="path3004"
         inkscape:connector-curvature="0" />
      <path
         d="m 743.79597,-105.20163 c 9.77014,1.2e-4 17.42345,3.09401 22.95995,9.281686 5.53636,6.187895 8.30458,16.36516 8.30466,30.531838 -8e-5,5.862193 -0.24434,11.968556 -0.73277,18.319105 -0.48858,6.187846 -1.38418,11.642863 -2.68679,16.365067 -2.93113,0.651394 -6.26928,1.221323 -10.01445,1.709783 -3.58247,0.325721 -7.32771,0.651394 -11.23572,0.977018 -3.74529,0.32572 -7.49052,0.569975 -11.23572,0.732765 -3.58243,0.162885 -6.83917,0.244301 -9.77019,0.244255 0.32563,7.816191 1.54692,13.515462 3.66382,17.0978319 2.27969,3.419592 6.35059,5.129373 12.21274,5.129349 4.39655,2.4e-5 8.71171,-0.569903 12.94551,-1.709783 4.39652,-1.302665 8.71168,-3.012446 12.94549,-5.1293489 0.81411,2.4425749 1.38404,5.4550479 1.70978,9.0374259 0.32561,3.41958405 0.48844,6.513474 0.48851,9.281679 -7e-5,2.442558 -0.89566,4.6408481 -2.6868,6.5948771 -1.79126,1.791207 -4.31523,3.338153 -7.57189,4.64084 -3.09395,1.302693 -6.75778,2.279711 -10.99146,2.931058 -4.23381,0.651344 -8.71179,0.977016 -13.43401,0.977019 -5.53647,-3e-6 -10.66583,-0.814185 -15.38805,-2.442548 -4.55944,-1.628363 -8.54894,-4.559416 -11.96849,-8.793171 -3.25673,-4.3965711 -5.86212,-10.34009705 -7.81615,-17.8305951 -1.79121,-7.4904449 -2.6868,-17.0163679 -2.6868,-28.5778039 0,-14.818051 1.13986,-26.705102 3.41957,-35.661191 2.44253,-9.11875 5.61784,-16.120707 9.52592,-21.005907 3.90807,-5.047816 8.46748,-8.385959 13.67828,-10.014439 5.21073,-1.79109 10.66574,-2.68669 16.36506,-2.68681 m -3.66382,23.692713 c -3.74528,9.4e-5 -6.43207,2.686901 -8.06041,8.060405 -1.6284,5.373691 -2.60541,13.678345 -2.93106,24.913982 3.41954,7e-5 6.8391,-0.162767 10.25871,-0.488508 3.41952,-0.325605 6.02491,-0.895532 7.81615,-1.709785 0.48846,-1.465456 0.81414,-3.419492 0.97702,-5.862114 0.16277,-2.605305 0.2442,-4.885014 0.24425,-6.839132 -5e-5,-3.907988 -0.16288,-7.001878 -0.48851,-9.28168 -0.32572,-2.442452 -0.81424,-4.31507 -1.46553,-5.617857 -0.65138,-1.302598 -1.54699,-2.116777 -2.6868,-2.442545 -0.97706,-0.488409 -2.19833,-0.732672 -3.66382,-0.732766"
         style="font-weight:bold;-inkscape-font-specification:Yanone Kaffeesatz Bold"
         id="path3006"
         inkscape:connector-curvature="0" />
      <path
         d="m 787.93357,-97.141219 c 1.95403,-0.976906 4.39658,-1.872505 7.32765,-2.686801 3.09387,-0.9769 6.35059,-1.8725 9.77018,-2.6868 3.58237,-0.81407 7.16479,-1.46541 10.74722,-1.95404 3.58236,-0.48839 6.9205,-0.73265 10.01444,-0.73277 6.18774,1.2e-4 11.47991,0.48863 15.87656,1.46553 4.3965,0.97715 7.97891,2.68693 10.74721,5.129343 2.93098,2.442676 5.04784,5.699397 6.35061,9.770203 1.46545,4.071011 2.19821,9.11894 2.1983,15.143781 l 0,88.175966 c -9e-5,1.302696 -0.16293,2.279713 -0.48851,2.931056 -0.32575,0.651348 -1.4656,1.139857 -3.41957,1.46553 -1.79127,0.162836 -4.64091,0.325672 -8.54891,0.488508 -3.74531,0 -9.03749,0 -15.87657,0 l 0,-84.512138 c -6e-5,-6.350532 -0.48854,-10.665697 -1.46551,-12.945503 -0.97708,-2.442449 -3.17537,-3.663721 -6.59489,-3.663815 -3.58244,9.4e-5 -6.67633,0.977114 -9.28168,2.931047 l 0,93.305315 c -3e-5,1.302696 -0.16286,2.279713 -0.4885,2.931056 -0.32571,0.651348 -1.38415,1.139857 -3.17531,1.46553 -1.6284,0.162836 -4.31521,0.325672 -8.06042,0.488508 -3.74525,0 -8.95602,0 -15.6323,0 l 0,-116.509506"
         style="font-weight:bold;-inkscape-font-specification:Yanone Kaffeesatz Bold"
         id="path3008"
         inkscape:connector-curvature="0" />
      <path
         d="m 876.18967,-97.141219 c 1.95404,-0.976906 4.39658,-1.872505 7.32764,-2.686801 3.09389,-0.9769 6.35062,-1.8725 9.7702,-2.6868 3.58237,-0.81407 7.16477,-1.46541 10.74721,-1.95404 3.58235,-0.48839 6.9205,-0.73265 10.01443,-0.73277 6.18774,1.2e-4 11.47993,0.48863 15.87657,1.46553 4.39652,0.97715 7.97892,2.68693 10.7472,5.129343 2.93099,2.442676 5.04786,5.699397 6.35062,9.770203 1.46546,4.071011 2.19822,9.11894 2.1983,15.143781 l 0,88.175966 c -8e-5,1.302696 -0.16292,2.279713 -0.4885,2.931056 -0.32575,0.651348 -1.46562,1.139857 -3.41958,1.46553 -1.79128,0.162836 -4.64091,0.325672 -8.54891,0.488508 -3.74531,0 -9.03748,0 -15.87657,0 l 0,-84.512138 c -3e-5,-6.350532 -0.48855,-10.665697 -1.46552,-12.945503 -0.97707,-2.442449 -3.17536,-3.663721 -6.59487,-3.663815 -3.58243,9.4e-5 -6.67633,0.977114 -9.28169,2.931047 l 0,93.305315 c -3e-5,1.302696 -0.16286,2.279713 -0.48851,2.931056 -0.3257,0.651348 -1.38414,1.139857 -3.17531,1.46553 -1.62838,0.162836 -4.31519,0.325672 -8.0604,0.488508 -3.74526,0 -8.95602,0 -15.63231,0 l 0,-116.509506"
         style="font-weight:bold;-inkscape-font-specification:Yanone Kaffeesatz Bold"
         id="path3010"
         inkscape:connector-curvature="0" />
      <path
         d="m 985.84881,10.242887 c 0,-0.8963701 0.31632,-1.6609231 0.94913,-2.2936621 0.63273,-0.659093 1.39725,-0.988642 2.29365,-0.988647 0.8963,5e-6 1.66091,0.329554 2.29364,0.988647 0.65913,0.632739 0.98861,1.397292 0.98861,2.2936621 0,0.870011 -0.32948,1.647745 -0.98861,2.333206 -0.65915,0.659096 -1.42366,0.988647 -2.29364,0.988647 -0.87008,0 -1.6346,-0.329551 -2.29365,-0.988647 -0.63281,-0.685461 -0.94913,-1.463195 -0.94913,-2.333206"
         style="font-size:136.88787842px;font-style:normal;font-variant:normal;font-weight:normal;font-stretch:normal;font-family:Sawasdee;-inkscape-font-specification:Sawasdee"
         id="path3012"
         inkscape:connector-curvature="0" />
      <path
         d="m 1007.9753,-83.355263 c 0,-1.697994 0.5917,-3.164517 1.7753,-4.399597 1.2349,-1.234867 2.7272,-1.852353 4.4766,-1.852461 1.6982,1.08e-4 3.1389,0.617594 4.3226,1.852461 1.2349,1.23508 1.8523,2.701603 1.8525,4.399597 -2e-4,1.749644 -0.5919,3.241904 -1.7754,4.476781 -1.1835,1.183607 -2.65,1.775367 -4.3997,1.775273 -1.7494,9.4e-5 -3.2417,-0.591666 -4.4766,-1.775273 -1.1836,-1.234877 -1.7753,-2.727137 -1.7753,-4.476781 m 9.7253,96.791113 -6.9466,0 0,-78.266498 6.9466,0 0,78.266498"
         style="font-size:136.88787842px;font-style:normal;font-variant:normal;font-weight:normal;font-stretch:normal;font-family:Sawasdee;-inkscape-font-specification:Sawasdee"
         id="path3014"
         inkscape:connector-curvature="0" />
      <path
         d="m 1074.1584,-64.710273 c 5.2371,7.7e-5 10.2497,1.022564 15.0379,3.067464 4.7883,2.045047 8.9282,4.813242 12.4195,8.304594 3.4913,3.491484 6.2595,7.656246 8.3046,12.494299 2.0449,4.838162 3.0674,9.900718 3.0675,15.187684 -10e-5,5.336919 -1.0226,10.424414 -3.0675,15.262498 -2.0451,4.8381309 -4.8133,9.0028929 -8.3046,12.4942999 -3.4913,3.441551 -7.6312,6.209746 -12.4195,8.3045951 -4.7882,2.044976 -9.8008,3.067461 -15.0379,3.067463 -10.7236,-2e-6 -19.8762,-3.8156211 -27.4575,-11.4468741 -7.5815,-7.631232 -11.3721,-16.8585489 -11.3721,-27.6819819 0,-7.082553 1.7207,-13.616492 5.1623,-19.601836 3.4914,-6.035109 8.2048,-10.773461 14.1402,-14.215072 5.9853,-3.491348 12.4944,-5.237056 19.5271,-5.237133 m -32.171,39.054041 c 0,8.928091 3.1423,16.5842709 9.4268,22.9685629 6.3344,6.334444 13.9656,9.50166 22.8938,9.501654 8.9281,6e-6 16.5341,-3.16721 22.8188,-9.501654 6.3346,-6.384292 9.5016,-14.0404719 9.5017,-22.9685629 -10e-5,-8.878139 -3.1671,-16.484442 -9.5017,-22.818932 -6.2847,-6.334367 -13.8907,-9.501582 -22.8188,-9.501652 -8.9282,7e-5 -16.5594,3.167285 -22.8938,9.501652 -6.2845,6.33449 -9.4268,13.940793 -9.4268,22.818932"
         style="font-size:136.88787842px;font-style:normal;font-variant:normal;font-weight:normal;font-stretch:normal;font-family:Sawasdee;-inkscape-font-specification:Sawasdee"
         id="path3016"
         inkscape:connector-curvature="0" />
      <flowRoot
         xml:space="preserve"
         id="flowRoot3011"
         style="font-size:40px;font-style:normal;font-variant:normal;font-weight:normal;font-stretch:normal;line-height:125%;letter-spacing:0px;word-spacing:0px;fill:#000000;fill-opacity:1;stroke:none;font-family:Yanone Kaffeesatz;-inkscape-font-specification:Yanone Kaffeesatz"
         transform="matrix(0.901293,0,0,0.92402013,569.13965,-404.78605)"><flowRegion
           id="flowRegion3013"><rect
             id="rect3015"
             width="940"
             height="300"
             x="-2.0625036"
             y="463.9082" /></flowRegion><flowPara
           id="flowPara3017"
           style="font-size:144px"><flowSpan
   style="font-weight:bold;-inkscape-font-specification:Yanone Kaffeesatz Bold"
   id="flowSpan3023">T</flowSpan>RIVIAL ities</flowPara></flowRoot>    </g>
    <text
       xml:space="preserve"
       style="font-size:40px;font-style:normal;font-variant:normal;font-weight:normal;font-stretch:normal;line-height:125%;letter-spacing:0px;word-spacing:0px;fill:#000000;fill-opacity:1;stroke:none;font-family:Yanone Kaffeesatz;-inkscape-font-specification:Yanone Kaffeesatz"
       x="717.75702"
       y="-28.971964"
       id="text3071"
       sodipodi:linespacing="125%"><tspan
         sodipodi:role="line"
         id="tspan3073"
         x="717.75702"
         y="-28.971964" /></text>
  </g>
  <flowRoot
     xml:space="preserve"
     id="flowRoot3049"
     style="font-size:200px;font-style:normal;font-variant:normal;font-weight:normal;font-stretch:normal;text-align:center;line-height:125%;letter-spacing:0px;word-spacing:0px;text-anchor:middle;fill:#000000;fill-opacity:1;stroke:none;font-family:Yanone Kaffeesatz;-inkscape-font-specification:Yanone Kaffeesatz"
     transform="translate(-73.640625,-57.884749)"><flowRegion
       id="flowRegion3051"><rect
         id="rect3053"
         width="992.71027"
         height="303.83179"
         x="167.28972"
         y="-173.83177"
         style="font-size:200px;text-align:center;text-anchor:middle" /></flowRegion><flowPara
       id="flowPara3055"
       style="font-size:200px;-inkscape-font-specification:Ubuntu;font-family:Ubuntu;font-weight:normal;font-style:normal;font-stretch:normal;font-variant:normal"><flowSpan
         style="-inkscape-font-specification:URW Bookman L;font-family:URW Bookman L;font-weight:normal;font-style:normal;font-stretch:normal;font-variant:normal"
         id="flowSpan3057">JBrenn</flowSpan><flowSpan
         style="-inkscape-font-specification:Ume Gothic;font-family:Ume Gothic;font-weight:normal;font-style:normal;font-stretch:normal;font-variant:normal"
         id="flowSpan3061">.io</flowSpan></flowPara></flowRoot></svg>
