<?xml version="1.0" encoding="UTF-8" standalone="no"?>
<svg
   xmlns:dc="http://purl.org/dc/elements/1.1/"
   xmlns:cc="http://creativecommons.org/ns#"
   xmlns:rdf="http://www.w3.org/1999/02/22-rdf-syntax-ns#"
   xmlns:svg="http://www.w3.org/2000/svg"
   xmlns="http://www.w3.org/2000/svg"
   xmlns:sodipodi="http://sodipodi.sourceforge.net/DTD/sodipodi-0.dtd"
   xmlns:inkscape="http://www.inkscape.org/namespaces/inkscape"
   class="title"
   viewBox="0 0 1200 400"
   id="svg2"
   version="1.1"
   inkscape:version="0.48.4 r9939"
   width="100%"
   height="100%"
   sodipodi:docname="title_.svg">
  <metadata
     id="metadata70">
    <rdf:RDF>
      <cc:Work
         rdf:about="">
        <dc:format>image/svg+xml</dc:format>
        <dc:type
           rdf:resource="http://purl.org/dc/dcmitype/StillImage" />
        <dc:title />
      </cc:Work>
    </rdf:RDF>
  </metadata>
  <defs
     id="defs68" />
  <sodipodi:namedview
     pagecolor="#ffffff"
     bordercolor="#666666"
     borderopacity="1"
     objecttolerance="10"
     gridtolerance="10"
     guidetolerance="10"
     inkscape:pageopacity="0"
     inkscape:pageshadow="2"
     inkscape:window-width="1855"
     inkscape:window-height="1056"
     id="namedview66"
     showgrid="true"
     inkscape:zoom="1.07"
     inkscape:cx="403.55621"
     inkscape:cy="193.16"
     inkscape:window-x="65"
     inkscape:window-y="24"
     inkscape:window-maximized="1"
     inkscape:current-layer="g4">
    <inkscape:grid
       type="xygrid"
       id="grid3047" />
  </sodipodi:namedview>
  <g
     class="mrloh"
     id="g4">
    <g
       transform="matrix(1.1095171,0,0,1.0822275,-269.40767,188.91983)"
       style="font-size:40px;font-style:normal;font-variant:normal;font-weight:normal;font-stretch:normal;line-height:125%;letter-spacing:0px;word-spacing:0px;fill:#000000;fill-opacity:1;stroke:none;font-family:Yanone Kaffeesatz;-inkscape-font-specification:Yanone Kaffeesatz"
       id="flowRoot3063">
      <path
         d="m 537.70263,-110.7215 c -4e-5,-2.39987 0.1333,-4.26653 0.4,-5.6 0.26663,-1.3332 1.06663,-2.26653 2.4,-2.8 1.46663,-0.66653 3.73329,-1.06653 6.8,-1.2 3.06662,-0.13319 7.46661,-0.19986 13.2,-0.2 l 0,107.799999 c -6e-5,11.3333544 -2.26672,19.8666792 -6.8,25.6 -4.53338,5.600001 -12.26671,8.399998 -23.2,8.4 -4.80002,-2e-6 -8.66669,-0.400001 -11.6,-1.2 -2.93335,-0.666666 -5.20001,-1.599999 -6.8,-2.8 -1.46667,-1.33333 -2.46667,-2.799995 -3,-4.4 -0.53334,-1.599992 -0.80001,-3.2666566 -0.8,-4.9999998 -1e-5,-2.9333188 0.33333,-5.3333164 1,-7.20000004 0.66666,-1.86664596 1.33333,-3.53331096 2,-4.99999996 1.86666,1.466689 4.26665,2.800021 7.2,3.99999996 2.93331,1.2000186 5.86664,1.80001804 8.8,1.80000004 2.13331,1.8e-5 3.86664,-0.2666484 5.2,-0.80000004 1.3333,-0.533314 2.39997,-1.4666464 3.2,-2.79999996 0.79997,-1.3333104 1.3333,-3.1999752 1.6,-5.6 0.26663,-2.3999702 0.39996,-5.5333002 0.4,-9.4000002 l 0,-93.599999"
         style="font-weight:bold;-inkscape-font-specification:Yanone Kaffeesatz Bold"
         id="path3000" />
      <path
         d="m 572.412,-116.5215 c 0,-1.3332 0.33333,-2.3332 1,-3 0.8,-0.66653 2.33333,-0.99986 4.6,-1 l 19.6,0 c 4.1333,1.4e-4 8.19996,0.46681 12.2,1.4 4.13329,0.80014 7.79995,2.33347 11,4.6 3.19995,2.2668 5.73328,5.46679 7.6,9.6 1.99994,4.00012 2.99994,9.266781 3,15.799999 -6e-5,5.06677 -0.53339,9.533433 -1.6,13.4 -1.06673,3.866758 -2.53339,7.133422 -4.4,9.8 -1.73339,2.66675 -3.73339,4.733414 -6,6.2 -2.13338,1.466745 -4.26671,2.33341 -6.4,2.6 2.39995,0.266743 4.93328,0.866743 7.6,1.8 2.79995,0.800074 5.33328,2.266739 7.6,4.4 2.26661,2.000069 4.13327,4.866732 5.6,8.6 1.4666,3.600058 2.19993,8.333387 2.2,14.2 -7e-5,6.666708 -0.66673,12.866702 -2,18.6000002 -1.3334,5.7333566 -3.53339,10.8000182 -6.6,15.2 -2.93339,4.2666762 -6.80005,7.6666728 -11.6,10.1999998 -4.66671,2.400001 -10.40004,3.6 -17.2,3.6 l -26.2,0 0,-135.999999 m 22.8,51.199999 3.8,0 c 2.39997,8.5e-5 4.26663,-1.733247 5.6,-5.2 1.3333,-3.466573 1.99996,-8.066568 2,-13.8 -4e-5,-3.466559 -0.20004,-6.266556 -0.6,-8.4 -0.40004,-2.266552 -0.93337,-3.999884 -1.6,-5.2 -0.53337,-1.199881 -1.20003,-1.99988 -2,-2.399999 -0.80003,-0.39988 -1.6667,-0.59988 -2.6,-0.6 l -4.6,0 0,35.599999 m 0,65.40000016 4,0 c 3.06663,1.94e-5 5.46663,-2.26664496 7.2,-6.79999996 1.86663,-4.6666362 2.79996,-11.1332962 2.8,-19.4000002 -4e-5,-4.533283 -0.20004,-8.133279 -0.6,-10.8 -0.40004,-2.666607 -1.00004,-4.666605 -1.8,-6 -0.80004,-1.466603 -1.80004,-2.399935 -3,-2.8 -1.20003,-0.533267 -2.60003,-0.799934 -4.2,-0.8 l -4.4,0 0,46.60000016"
         style="font-weight:bold;-inkscape-font-specification:Yanone Kaffeesatz Bold"
         id="path3002" />
      <path
         d="m 644.49638,-73.521501 c 3.46665,-2.399904 7.53332,-4.466569 12.2,-6.2 4.79997,-1.866565 9.99997,-2.799898 15.6,-2.8 5.46662,1.02e-4 9.06662,0.800101 10.8,2.4 1.73328,1.600098 2.59995,4.133429 2.6,7.6 -5e-5,1.333424 -0.13338,3.200089 -0.4,5.6 -0.26672,2.400084 -0.86672,4.866748 -1.8,7.4 -1.46671,-0.666587 -2.80004,-1.066586 -4,-1.2 -1.20004,-0.266586 -2.33337,-0.399919 -3.4,-0.4 -1.20004,8.1e-5 -2.60004,0.266747 -4.2,0.8 -1.60003,0.533413 -3.0667,1.333412 -4.4,2.4 l -0.2,73.4 c -3e-5,1.06667 -0.13336,1.866669 -0.4,2.4 -0.2667,0.533335 -1.13336,0.933334 -2.6,1.2 -1.33336,0.133334 -3.53336,0.266667 -6.6,0.4 -3.06669,0 -7.46668,0 -13.2,0 l 0,-93"
         style="font-weight:bold;-inkscape-font-specification:Yanone Kaffeesatz Bold"
         id="path3004" />
      <path
         d="m 723.1995,-82.521501 c 7.99996,1.02e-4 14.26662,2.533433 18.8,7.6 4.53327,5.066756 6.79994,13.400081 6.8,25 -6e-5,4.800065 -0.20006,9.80006 -0.6,15 -0.40006,5.066716 -1.13339,9.533378 -2.2,13.4 -2.40006,0.533374 -5.13339,1.00004 -8.2,1.4 -2.93338,0.266706 -6.00005,0.533373 -9.2,0.8 -3.06671,0.266705 -6.13337,0.466705 -9.2,0.6 -2.93336,0.133372 -5.60003,0.200038 -8,0.2 0.26664,6.400032 1.26664,11.0666938 3,14.0000002 1.86664,2.8000212 5.19997,4.20001976 10,4.19999996 3.59996,1.98e-5 7.13329,-0.4666464 10.6,-1.39999996 3.59995,-1.0666444 7.13328,-2.466643 10.6,-4.2 0.66661,2.0000234 1.13327,4.4666876 1.4,7.4 0.26661,2.8000152 0.39994,5.333346 0.4,7.6 -6e-5,2.0000088 -0.73339,3.8000068 -2.2,5.3999998 -1.46672,1.46667 -3.53339,2.733336 -6.2,3.8 -2.53338,1.066667 -5.53338,1.866666 -9,2.4 -3.46671,0.533332 -7.13337,0.799998 -11,0.8 -4.53336,-2e-6 -8.73336,-0.666668 -12.6,-2 -3.73335,-1.333332 -7.00001,-3.733329 -9.8,-7.2 -2.66667,-3.599989 -4.80001,-8.4666508 -6.4,-14.5999998 -1.46667,-6.1333054 -2.2,-13.9332972 -2.2,-23.4000002 0,-12.133276 0.93333,-21.866599 2.8,-29.2 1.99999,-7.466585 4.59999,-13.199912 7.8,-17.2 3.19998,-4.133237 6.93331,-6.866568 11.2,-8.2 4.26664,-1.466565 8.7333,-2.199898 13.4,-2.2 m -3,19.4 c -3.0667,8.3e-5 -5.26669,2.200081 -6.6,6.6 -1.33336,4.400072 -2.13336,11.200065 -2.4,20.4 2.79997,5.6e-5 5.59997,-0.133277 8.4,-0.4 2.79996,-0.26661 4.9333,-0.733276 6.4,-1.4 0.39996,-1.199941 0.66663,-2.79994 0.8,-4.8 0.13329,-2.133269 0.19996,-3.999934 0.2,-5.6 -4e-5,-3.199929 -0.13337,-5.73326 -0.4,-7.6 -0.26671,-1.999922 -0.66671,-3.533254 -1.2,-4.6 -0.53337,-1.066585 -1.2667,-1.733251 -2.2,-2 -0.80004,-0.399917 -1.80003,-0.599917 -3,-0.6"
         style="font-weight:bold;-inkscape-font-specification:Yanone Kaffeesatz Bold"
         id="path3006" />
      <path
         d="m 759.34013,-75.921501 c 1.59999,-0.799904 3.59999,-1.533236 6,-2.2 2.53332,-0.799901 5.19998,-1.533234 8,-2.2 2.93331,-0.666566 5.86664,-1.199899 8.8,-1.6 2.9333,-0.399898 5.66663,-0.599898 8.2,-0.6 5.06662,1.02e-4 9.39995,0.400102 13,1.2 3.59994,0.8001 6.53327,2.200099 8.8,4.2 2.39994,2.000095 4.13327,4.666759 5.2,8 1.19993,3.333419 1.79993,7.466748 1.8,12.4 l 0,72.2 c -7e-5,1.06667 -0.1334,1.866669 -0.4,2.4 -0.26673,0.533335 -1.20007,0.933334 -2.8,1.2 -1.46673,0.133334 -3.80006,0.266667 -7,0.4 -3.06672,0 -7.40005,0 -13,0 l 0,-69.2 c -5e-5,-5.199925 -0.40004,-8.733255 -1.2,-10.6 -0.80004,-1.999918 -2.60004,-2.999917 -5.4,-3 -2.93337,8.3e-5 -5.4667,0.800082 -7.6,2.4 l 0,76.4 c -3e-5,1.06667 -0.13336,1.866669 -0.4,2.4 -0.2667,0.533335 -1.13336,0.933334 -2.6,1.2 -1.33336,0.133334 -3.53336,0.266667 -6.6,0.4 -3.06668,0 -7.33335,0 -12.8,0 l 0,-95.4"
         style="font-weight:bold;-inkscape-font-specification:Yanone Kaffeesatz Bold"
         id="path3008" />
      <path
         d="m 831.60575,-75.921501 c 1.59999,-0.799904 3.59999,-1.533236 6,-2.2 2.53332,-0.799901 5.19999,-1.533234 8,-2.2 2.93331,-0.666566 5.86664,-1.199899 8.8,-1.6 2.9333,-0.399898 5.66663,-0.599898 8.2,-0.6 5.06663,1.02e-4 9.39996,0.400102 13,1.2 3.59995,0.8001 6.53328,2.200099 8.8,4.2 2.39994,2.000095 4.13327,4.666759 5.2,8 1.19994,3.333419 1.79994,7.466748 1.8,12.4 l 0,72.2 c -6e-5,1.06667 -0.1334,1.866669 -0.4,2.4 -0.26673,0.533335 -1.20006,0.933334 -2.8,1.2 -1.46673,0.133334 -3.80006,0.266667 -7,0.4 -3.06672,0 -7.40005,0 -13,0 l 0,-69.2 c -4e-5,-5.199925 -0.40004,-8.733255 -1.2,-10.6 -0.80004,-1.999918 -2.60004,-2.999917 -5.4,-3 -2.93336,8.3e-5 -5.46669,0.800082 -7.6,2.4 l 0,76.4 c -3e-5,1.06667 -0.13336,1.866669 -0.4,2.4 -0.26669,0.533335 -1.13336,0.933334 -2.6,1.2 -1.33335,0.133334 -3.53335,0.266667 -6.6,0.4 -3.06668,0 -7.33334,0 -12.8,0 l 0,-95.4"
         style="font-weight:bold;-inkscape-font-specification:Yanone Kaffeesatz Bold"
         id="path3010" />
      <path
         d="m 921.39655,12.006463 c -1e-5,-0.733963 0.25904,-1.359992 0.77714,-1.87809 0.51809,-0.539676 1.14411,-0.8095162 1.87809,-0.8095211 0.73395,4.9e-6 1.35999,0.2698451 1.87809,0.8095211 0.53967,0.518098 0.80951,1.144127 0.80952,1.87809 -10e-6,0.71238 -0.26985,1.349203 -0.80952,1.91047 -0.53969,0.53968 -1.16572,0.809521 -1.87809,0.809521 -0.71239,0 -1.33842,-0.269841 -1.87809,-0.809521 -0.5181,-0.561267 -0.77715,-1.19809 -0.77714,-1.91047"
         style="font-size:136.88787842px;font-style:normal;font-variant:normal;font-weight:normal;font-stretch:normal;font-family:Sawasdee;-inkscape-font-specification:Sawasdee"
         id="path3012"
         inkscape:connector-curvature="0" />
      <path
         d="m 939.51412,-64.63332 c -1e-5,-1.390344 0.48453,-2.591165 1.45363,-3.602465 1.0112,-1.011135 2.2331,-1.516744 3.66566,-1.516828 1.39041,8.4e-5 2.57017,0.505693 3.53927,1.516828 1.0112,1.0113 1.51681,2.212121 1.51683,3.602465 -2e-5,1.432637 -0.48456,2.654524 -1.45363,3.665666 -0.9691,0.969159 -2.16992,1.4537 -3.60247,1.453627 -1.43256,7.3e-5 -2.65446,-0.484468 -3.66566,-1.453627 -0.9691,-1.011142 -1.45364,-2.233029 -1.45363,-3.665666 m 7.96334,79.254237 -5.6881,0 0,-64.085962 5.6881,0 0,64.085962"
         style="font-size:136.88787842px;font-style:normal;font-variant:normal;font-weight:normal;font-stretch:normal;font-family:Sawasdee;-inkscape-font-specification:Sawasdee"
         id="path3014"
         inkscape:connector-curvature="0" />
      <path
         d="m 993.70602,-49.366479 c 4.2882,6.3e-5 8.39268,0.837293 12.31338,2.511692 3.9207,1.67452 7.3105,3.941166 10.1693,6.799945 2.8587,2.858888 5.1254,6.269067 6.7999,10.230549 1.6744,3.96157 2.5117,8.106879 2.5118,12.435938 -10e-5,4.369961 -0.8374,8.5356896 -2.5118,12.4971969 -1.6745,3.9615447 -3.9412,7.3717242 -6.7999,10.2305493 -2.8588,2.818001 -6.2486,5.0846468 -10.1693,6.7999458 -3.9207,1.674461 -8.02518,2.51169 -12.31338,2.511691 -8.78073,-1e-6 -16.27496,-3.124297 -22.48269,-9.3728978 -6.20777,-6.24858416 -9.31165,-13.8040718 -9.31164,-22.6664852 -10e-6,-5.799317 1.40899,-11.149419 4.227,-16.050323 2.85882,-4.941651 6.71824,-8.821495 11.57828,-11.639547 4.90084,-2.858775 10.23051,-4.288191 15.98905,-4.288254 m -26.34212,31.978124 c -10e-6,7.310475 2.57293,13.5794881 7.71885,18.8070565 5.18673,5.1867525 11.43532,7.7801226 18.74581,7.780118 7.31044,4.6e-6 13.53854,-2.5933655 18.68444,-7.780118 5.1868,-5.2275684 7.7801,-11.4965815 7.7802,-18.8070565 -10e-5,-7.269574 -2.5934,-13.497746 -7.7802,-18.684537 -5.1459,-5.186689 -11.374,-7.780059 -18.68444,-7.780117 -7.31049,5.8e-5 -13.55908,2.593428 -18.74581,7.780117 -5.14592,5.186791 -7.71886,11.414963 -7.71885,18.684537"
         style="font-size:136.88787842px;font-style:normal;font-variant:normal;font-weight:normal;font-stretch:normal;font-family:Sawasdee;-inkscape-font-specification:Sawasdee"
         id="path3016"
         inkscape:connector-curvature="0" />
      <path
         d="m 620.33819,95.331137 c -0.0876,-0.525605 -0.0876,-0.919841 0,-1.182711 0.13141,-0.262779 0.50374,-0.394191 1.117,-0.394237 l 4.40232,0 4.73084,25.428291 c 0.52564,2.93489 0.91988,5.60694 1.18271,8.01615 0.30662,2.40924 0.56944,4.66515 0.78848,6.76774 l 0.39423,0 c 0.0876,-2.62824 0.28472,-5.14697 0.59136,-7.55621 0.30661,-2.45302 0.67895,-4.86224 1.117,-7.22768 l 4.00808,-21.617333 c 0.0876,-0.569411 0.1971,-0.963648 0.32853,-1.182711 0.1752,-0.262781 0.52563,-0.394194 1.0513,-0.394237 l 3.81096,0 4.59943,23.194281 c 0.56943,2.9787 0.98556,5.65075 1.24842,8.01615 0.26279,2.36544 0.50372,4.59944 0.72277,6.70203 l 0.39423,0 c 0.17519,-2.10259 0.39421,-4.44611 0.65707,-7.03056 0.26279,-2.62823 0.59132,-5.19077 0.98559,-7.68762 l 4.20519,-23.851343 c 0.0876,-0.525605 0.21899,-0.919841 0.39424,-1.182711 0.17518,-0.262779 0.50371,-0.394191 0.98559,-0.394237 l 4.53373,0 -8.60751,46.191441 c -0.48188,0.0438 -0.89802,0.0876 -1.24842,0.13141 -0.30666,0.0438 -0.61329,0.0657 -0.91988,0.0657 -0.30666,0.0438 -0.6352,0.0657 -0.9856,0.0657 -0.35046,0.0438 -0.7885,0.0657 -1.31412,0.0657 -0.7885,0 -1.42366,-0.32853 -1.90548,-0.98559 -0.43807,-0.70087 -0.7666,-1.62075 -0.98559,-2.75966 l -3.35102,-14.71818 c -0.17524,-0.87607 -0.37236,-1.92737 -0.59135,-3.1539 -0.17524,-1.2703 -0.35046,-2.58442 -0.52565,-3.94237 -0.17524,-1.40171 -0.35046,-2.78153 -0.52565,-4.13949 -0.13144,-1.3579 -0.26285,-2.60631 -0.39424,-3.74525 -0.13143,1.13894 -0.28475,2.38735 -0.45994,3.74525 -0.17524,1.35796 -0.35046,2.71588 -0.52565,4.07378 -0.13143,1.35795 -0.28475,2.67208 -0.45994,3.94237 -0.17524,1.22654 -0.32855,2.27784 -0.45995,3.1539 l -3.61384,18.20061 c -0.83229,0.0876 -1.57696,0.15331 -2.23401,0.19712 -0.61327,0.0438 -1.48935,0.0657 -2.62824,0.0657 -0.70088,0 -1.27033,-0.37234 -1.70837,-1.11701 -0.43805,-0.74467 -0.76658,-1.73026 -0.98559,-2.95678 -0.30663,-1.35792 -0.65707,-2.97867 -1.0513,-4.86225 -0.35044,-1.88357 -0.74467,-3.89856 -1.18271,-6.04497 -0.43804,-2.19019 -0.87609,-4.4461 -1.31412,-6.76774 -0.43805,-2.32159 -0.85419,-4.59941 -1.24842,-6.83344 -0.96369,-5.16885 -1.97119,-10.60056 -3.02248,-16.295133"
         style="font-size:65.70617676px;text-align:center;text-anchor:middle"
         id="path3018"
         inkscape:connector-curvature="0" />
      <path
         d="m 679.31667,128.05281 -11.30146,0 -2.56254,10.77582 c -0.0876,0.35043 -0.26284,0.61325 -0.52565,0.78847 -0.26283,0.17522 -0.9199,0.26282 -1.97119,0.26282 -0.35044,0 -0.85418,-0.0219 -1.51124,-0.0657 -0.61326,0 -1.22652,-0.0438 -1.83977,-0.13141 l 11.6957,-45.205854 c 0.1314,-0.613211 0.81036,-0.91984 2.03689,-0.919886 1.00748,4.6e-5 1.83975,0.06575 2.49683,0.197119 l 11.76141,45.008731 c 0.0876,0.35043 -0.0219,0.63516 -0.32853,0.85418 -0.26286,0.17522 -0.91992,0.26282 -1.97119,0.26282 -0.39426,0 -0.8542,0 -1.37983,0 -0.52567,0 -1.11703,-0.0438 -1.77407,-0.13141 l -2.82536,-11.6957 m -10.18446,-4.86225 9.06745,0 -2.23401,-9.33028 c -0.26284,-1.09508 -0.52566,-2.21208 -0.78847,-3.35102 -0.21904,-1.13887 -0.43806,-2.25588 -0.65706,-3.35101 -0.17523,-1.13887 -0.35045,-2.21207 -0.52565,-3.2196 -0.13143,-1.00746 -0.24094,-1.90545 -0.32853,-2.69396 -0.0876,0.78851 -0.21904,1.6865 -0.39424,2.69396 -0.17523,1.00753 -0.37235,2.05882 -0.59136,3.15389 -0.17522,1.09514 -0.37234,2.23404 -0.59135,3.41672 -0.21903,1.13894 -0.45996,2.25594 -0.72277,3.35102 l -2.23401,9.33028"
         style="font-size:65.70617676px;text-align:center;text-anchor:middle"
         id="path3020"
         inkscape:connector-curvature="0" />
      <path
         d="m 698.82832,98.747858 0,39.949352 c -10e-6,0.26283 -0.0438,0.48185 -0.13141,0.65707 -0.0438,0.13141 -0.24093,0.24092 -0.59135,0.32853 -0.30665,0.0438 -0.83229,0.0657 -1.57695,0.0657 -0.70088,0 -1.70837,0 -3.02249,0 l 0,-41.000652 -8.93604,0 0,-3.876664 c 0,-0.744625 0.37234,-1.116959 1.11701,-1.117005 l 22.3401,0 0,3.94237 c -2e-5,0.700907 -0.37236,1.05134 -1.11701,1.051299 l -8.08186,0"
         style="font-size:65.70617676px;text-align:center;text-anchor:middle"
         id="path3022"
         inkscape:connector-curvature="0" />
      <path
         d="m 728.07065,134.95196 c -2e-5,1.13891 -0.0219,2.0369 -0.0657,2.69395 -2e-5,0.61326 -0.0438,1.07321 -0.13142,1.37983 -0.0438,0.30663 -0.13143,0.50375 -0.26282,0.59136 -0.13143,0.0876 -0.32855,0.13141 -0.59136,0.13141 l -15.57236,0 0,-44.877316 c 0,-0.175172 0.0438,-0.350388 0.13141,-0.52565 0.0876,-0.131367 0.19712,-0.262779 0.32853,-0.394237 0.17522,-0.131366 0.39424,-0.197072 0.65706,-0.197118 l 15.70378,0 c -2e-5,1.095147 -2e-5,1.971229 0,2.628247 -2e-5,0.6133 -0.0438,1.095145 -0.13141,1.445535 -0.0438,0.306671 -0.13143,0.503789 -0.26283,0.591356 -0.13143,0.08765 -0.32855,0.131454 -0.59135,0.131412 l -10.44728,0 0,13.732591 9.85592,0 c -2e-5,1.00752 -2e-5,1.8398 0,2.49684 -2e-5,0.65708 -0.0438,1.16083 -0.13141,1.51124 -0.0438,0.35045 -0.13143,0.59138 -0.26282,0.72277 -0.13143,0.13143 -0.32855,0.19714 -0.59136,0.19711 l -8.87033,0 0,17.74067 11.23575,0"
         style="font-size:65.70617676px;text-align:center;text-anchor:middle"
         id="path3024"
         inkscape:connector-curvature="0" />
      <path
         d="m 732.42779,94.871194 c 0,-0.175172 0.0438,-0.350388 0.13141,-0.52565 0.0876,-0.131367 0.19712,-0.262779 0.32854,-0.394237 0.1314,-0.131366 0.35042,-0.197072 0.65706,-0.197118 l 6.50491,0 c 4.16137,4.6e-5 7.20576,1.029441 9.13316,3.08819 1.97116,2.01503 2.95675,5.322241 2.95677,9.921631 -2e-5,3.54816 -0.52567,6.35163 -1.57694,8.41039 -1.05132,2.01501 -2.43115,3.50435 -4.13949,4.46802 0.52563,0.65708 1.09508,1.53316 1.70836,2.62825 0.65704,1.09512 1.2922,2.40924 1.90548,3.94237 0.61323,1.53316 1.13888,3.32912 1.57695,5.38791 0.48182,2.0588 0.81035,4.38041 0.98559,6.96485 -2e-5,0.48185 -0.13144,0.83228 -0.39424,1.0513 -0.26285,0.17522 -1.02942,0.26282 -2.29972,0.26282 -0.43806,0 -0.9199,-0.0219 -1.44553,-0.0657 -0.52567,0 -1.09512,-0.0219 -1.70836,-0.0657 -0.17524,-2.75965 -0.48186,-5.19078 -0.91989,-7.29338 -0.43806,-2.10259 -0.9199,-3.89856 -1.44553,-5.38791 -0.52567,-1.53313 -1.07322,-2.78155 -1.64266,-3.74525 -0.52566,-1.00748 -0.9856,-1.77405 -1.37983,-2.29972 -0.21903,0.0438 -0.43805,0.0657 -0.65706,0.0657 -0.21903,2e-5 -0.43805,2e-5 -0.65706,0 l -2.29972,0 0,17.60925 c -10e-6,0.26283 -0.0438,0.48185 -0.13141,0.65707 -0.0438,0.13141 -0.24093,0.24092 -0.59136,0.32853 -0.30663,0.0438 -0.83228,0.0657 -1.57694,0.0657 -0.70088,0 -1.70837,0 -3.02249,0 l 0,-44.877316 m 13.7983,11.629996 c -2e-5,-2.4968 -0.37235,-4.46799 -1.11701,-5.91356 -0.74468,-1.445494 -2.10261,-2.168262 -4.07378,-2.168303 l -3.28531,0 0,17.740663 2.89107,0 c 1.83976,3e-5 3.21959,-0.72274 4.13949,-2.1683 0.96368,-1.48931 1.44552,-3.98614 1.44554,-7.4905"
         style="font-size:65.70617676px;text-align:center;text-anchor:middle"
         id="path3026"
         inkscape:connector-curvature="0" />
      <path
         d="m 810.29544,139.50601 c -0.70417,-1.85636 -1.47233,-3.55268 -2.30445,-5.089 -2.17646,1.92039 -4.41689,3.39266 -6.72131,4.41687 -2.30448,0.96019 -4.57691,1.44028 -6.81733,1.44028 -2.88059,0 -5.40907,-0.44808 -7.58548,-1.34425 -2.11242,-0.89618 -3.90478,-2.08041 -5.37706,-3.5527 -1.40827,-1.5363 -2.46448,-3.29664 -3.16861,-5.28103 -0.70414,-1.98438 -1.05621,-4.06479 -1.05621,-6.24121 0,-3.07258 0.76815,-5.98514 2.30445,-8.73771 1.60031,-2.81652 3.96877,-5.18498 7.1054,-7.10537 -1.53632,-2.1124 -2.81657,-4.32082 -3.84076,-6.62531 -0.9602,-2.304402 -1.44028,-4.704868 -1.44027,-7.201396 -10e-6,-2.560457 0.44807,-4.800888 1.34425,-6.721316 0.89618,-1.984332 2.0804,-3.616642 3.55269,-4.896946 1.47229,-1.280192 3.10459,-2.240378 4.89696,-2.880563 1.85634,-0.640065 3.74472,-0.960125 5.6651,-0.960187 1.79233,6.2e-5 3.55267,0.288117 5.28103,0.86417 1.72831,0.576171 3.2646,1.440339 4.6089,2.592497 1.34423,1.08827 2.43244,2.496544 3.26464,4.224835 0.83212,1.664372 1.2482,3.616745 1.24825,5.857132 -5e-5,3.072644 -0.92824,6.081231 -2.78456,9.025764 -1.85639,2.88059 -4.76896,5.34507 -8.7377,7.39344 1.28022,1.53632 2.62449,3.10463 4.0328,4.70491 1.40824,1.60034 2.84851,3.23266 4.32082,4.89696 0.89615,-3.26461 1.37624,-7.13736 1.4403,-11.61827 l 9.79391,1.24825 c -0.064,3.58473 -0.54416,6.91336 -1.44029,9.98594 -0.83221,3.07262 -1.92042,5.85716 -3.26464,8.35363 1.53627,2.11242 2.91252,4.28885 4.12881,6.52927 1.2162,2.24044 2.14438,4.48087 2.78454,6.72131 l -11.23418,0 m -7.00937,-12.00234 c -1.79238,-2.24041 -3.64875,-4.41683 -5.56909,-6.52926 -1.92039,-2.1124 -3.80876,-4.19279 -5.66511,-6.24123 -1.40828,0.96022 -2.5605,2.14444 -3.45667,3.5527 -0.83216,1.34429 -1.24825,3.0086 -1.24824,4.99298 -10e-6,2.17644 0.5441,4.0648 1.63233,5.66509 1.1522,1.60033 3.07257,2.40048 5.76112,2.40048 1.47226,0 2.94454,-0.28806 4.41685,-0.86418 1.47227,-0.5761 2.84853,-1.56828 4.12881,-2.97658 M 791.57179,93.609069 c -3e-5,1.408319 0.28803,2.848596 0.86417,4.320843 0.57608,1.408319 1.37623,2.880598 2.40045,4.416858 2.04839,-1.15218 3.61669,-2.656471 4.70493,-4.512874 1.08819,-1.92033 1.63229,-3.744692 1.63231,-5.473067 -2e-5,-1.66427 -0.41609,-2.912513 -1.24823,-3.744728 -0.76819,-0.89612 -1.79237,-1.344209 -3.07261,-1.344266 -1.60032,5.7e-5 -2.88058,0.544156 -3.84073,1.632324 -0.96022,1.088256 -1.44032,2.656561 -1.44029,4.70491"
         style="font-style:normal;font-variant:normal;font-weight:bold;font-stretch:normal;font-family:Ubuntu Mono;-inkscape-font-specification:Ubuntu Mono Bold"
         id="path3028"
         inkscape:connector-curvature="0" />
      <path
         d="m 842.90357,109.19514 c 1.27032,-0.87605 2.67205,-1.57692 4.2052,-2.1026 1.53314,-0.56942 3.11008,-0.85414 4.73085,-0.85418 1.66454,4e-5 2.84725,0.24096 3.54813,0.72277 0.70085,0.48188 1.05128,1.16084 1.0513,2.03689 -2e-5,0.35046 -0.0438,0.83231 -0.13141,1.44554 -0.0876,0.56948 -0.24094,1.13893 -0.45995,1.70836 -1.00751,-0.52562 -2.05881,-0.78845 -3.15389,-0.78848 -0.74469,3e-5 -1.51126,0.13144 -2.29972,0.39424 -0.74468,0.21905 -1.42364,0.59138 -2.03689,1.11701 l -0.0657,25.82252 c -10e-6,0.26283 -0.0438,0.48185 -0.13141,0.65707 -0.0438,0.13141 -0.24093,0.24092 -0.59136,0.32853 -0.30663,0.0438 -0.83228,0.0657 -1.57694,0.0657 -0.74468,0 -1.77408,0 -3.0882,0 l 0,-30.55337"
         style="font-size:65.70617676px;text-align:center;text-anchor:middle"
         id="path3030"
         inkscape:connector-curvature="0" />
      <path
         d="m 859.36788,123.32197 c 0,-6.00114 0.94179,-10.33775 2.82537,-13.00982 1.92738,-2.71583 4.62133,-4.07375 8.08186,-4.07379 1.70835,4e-5 3.19769,0.26286 4.46802,0.78848 1.31411,0.48187 2.38731,1.37986 3.2196,2.69395 0.83226,1.27035 1.44552,3.00061 1.83978,5.19079 0.43801,2.14642 0.65704,4.88418 0.65706,8.21327 -2e-5,6.13259 -0.91991,10.5568 -2.75966,13.27265 -1.83979,2.67205 -4.51184,4.00807 -8.01616,4.00807 -1.70837,0 -3.1977,-0.19711 -4.46802,-0.59135 -1.27032,-0.39424 -2.34352,-1.18271 -3.2196,-2.36542 -0.87608,-1.22652 -1.53314,-2.95678 -1.97118,-5.19079 -0.43805,-2.27781 -0.65707,-5.25648 -0.65707,-8.93604 m 5.78215,0.13141 c -10e-6,2.71587 0.0876,4.88417 0.26282,6.50491 0.21902,1.62076 0.52564,2.86918 0.91989,3.74525 0.39423,0.87609 0.87607,1.46745 1.44554,1.77407 0.61324,0.26283 1.29221,0.39424 2.03689,0.39424 0.70085,0 1.33601,-0.17521 1.90548,-0.52565 0.61324,-0.35043 1.13889,-1.00749 1.57694,-1.97119 0.43803,-0.96368 0.76656,-2.2559 0.9856,-3.87666 0.26281,-1.62074 0.39422,-3.72334 0.39423,-6.30779 -10e-6,-2.62823 -0.10952,-4.73083 -0.32853,-6.3078 -0.17523,-1.62073 -0.45996,-2.86914 -0.85418,-3.74525 -0.35045,-0.87605 -0.81039,-1.46741 -1.37983,-1.77407 -0.56946,-0.3066 -1.24843,-0.45991 -2.03689,-0.45994 -0.74468,3e-5 -1.42364,0.17525 -2.03689,0.52565 -0.56946,0.35046 -1.07321,0.98562 -1.51124,1.90548 -0.43805,0.91991 -0.78848,2.21213 -1.0513,3.87666 -0.21903,1.62078 -0.32854,3.70147 -0.32853,6.24209"
         style="font-size:65.70617676px;text-align:center;text-anchor:middle"
         id="path3032"
         inkscape:connector-curvature="0" />
      <path
         d="m 901.23505,109.19514 c -2e-5,0.35046 -0.0438,0.7885 -0.13141,1.31412 -0.0876,0.52568 -0.24095,1.07323 -0.45995,1.64266 -0.52567,-0.3066 -1.20463,-0.56943 -2.03689,-0.78848 -0.83229,-0.26279 -1.68647,-0.3942 -2.56254,-0.39423 -0.78849,3e-5 -1.57696,0.13144 -2.36542,0.39423 -0.74468,0.26286 -1.42365,0.85421 -2.03689,1.77407 -0.61327,0.87611 -1.11702,2.19023 -1.51125,3.94237 -0.39424,1.70838 -0.59136,4.03 -0.59135,6.96486 -10e-6,2.32163 0.1095,4.2271 0.32853,5.71643 0.26282,1.48935 0.63515,2.67206 1.117,3.54814 0.48184,0.87608 1.0732,1.48934 1.77407,1.83977 0.74466,0.35044 1.62074,0.52565 2.62825,0.52565 1.05128,0 2.03687,-0.15331 2.95678,-0.45994 0.91987,-0.35043 1.66453,-0.70086 2.23401,-1.0513 0.17519,0.61326 0.30661,1.13891 0.39423,1.57695 0.0876,0.43804 0.1314,0.87608 0.13142,1.31412 -2e-5,0.87608 -0.67899,1.66456 -2.0369,2.36542 -1.35794,0.65706 -3.132,0.98559 -5.3222,0.98559 -1.57695,0 -2.97868,-0.19711 -4.20519,-0.59135 -1.18272,-0.39424 -2.19021,-1.18271 -3.02249,-2.36542 -0.83228,-1.18271 -1.46744,-2.84727 -1.90547,-4.99367 -0.43805,-2.1464 -0.65707,-4.94986 -0.65707,-8.41039 0,-3.94235 0.35043,-7.07435 1.0513,-9.39599 0.74467,-2.36539 1.68646,-4.16136 2.82537,-5.3879 1.1389,-1.27029 2.40922,-2.08067 3.81096,-2.43113 1.40172,-0.39421 2.78155,-0.59132 4.13949,-0.59136 1.53312,4e-5 2.82534,0.28476 3.87666,0.85418 1.05128,0.52568 1.57693,1.22655 1.57695,2.1026"
         style="font-size:65.70617676px;text-align:center;text-anchor:middle"
         id="path3034"
         inkscape:connector-curvature="0" />
      <path
         d="m 905.47309,93.885601 c 0,-0.613211 0.0657,-1.073154 0.19712,-1.37983 0.17521,-0.350385 0.45994,-0.591308 0.85418,-0.722768 0.39423,-0.175168 0.94178,-0.262776 1.64265,-0.262824 0.70086,-0.04376 1.59885,-0.06566 2.69396,-0.06571 l 0,17.806381 c 1.09509,-0.91986 2.38731,-1.64263 3.87666,-2.16831 1.48933,-0.56942 2.93486,-0.85414 4.33661,-0.85418 1.09508,4e-5 1.99307,0.15335 2.69395,0.45995 0.70085,0.30666 1.2703,0.7228 1.70836,1.24841 0.43802,0.52568 0.74465,1.13894 0.91989,1.83978 0.17519,0.65709 0.2628,1.35795 0.26282,2.10259 -2e-5,1.35796 -0.21904,2.60637 -0.65706,3.74526 -0.39426,1.09512 -0.8761,2.08071 -1.44554,2.95677 -0.56947,0.8323 -1.18273,1.55507 -1.83977,2.16831 -0.61327,0.56947 -1.11702,1.00751 -1.51124,1.31412 1.57693,0.70088 2.97866,1.9712 4.2052,3.81096 1.27029,1.83978 2.03686,4.27091 2.29971,7.29338 0.0438,0.35044 0.0657,0.70088 0.0657,1.0513 -3e-5,0.35044 -3e-5,0.72278 0,1.11701 -3e-5,1.0513 -0.0657,2.1683 -0.19712,3.35101 -0.0438,0.26283 -0.10953,0.48185 -0.19712,0.65707 -0.0438,0.13141 -0.26285,0.24092 -0.65706,0.32853 -0.39426,0.0438 -0.98562,0.0657 -1.77407,0.0657 -0.78849,0 -1.9274,0 -3.41672,0 0.0876,-0.74467 0.1533,-1.46743 0.19712,-2.1683 0.0438,-0.70086 0.0657,-1.37983 0.0657,-2.03689 -2e-5,-0.74467 -0.0438,-1.42363 -0.13142,-2.03689 -0.0438,-0.61326 -0.10952,-1.22651 -0.19712,-1.83978 -0.39425,-2.62823 -1.13892,-4.468 -2.23401,-5.51932 -1.05131,-1.09508 -2.21212,-1.51122 -3.48242,-1.24841 -0.30664,0.0876 -0.63517,0.19713 -0.9856,0.32853 -0.30663,0.13142 -0.61326,0.26284 -0.91988,0.39423 -0.35044,0.17523 -0.67897,0.35045 -0.98559,0.52565 l 0,12.54988 c -1e-5,0.26283 -0.0219,0.48185 -0.0657,0.65707 -0.0438,0.13141 -0.24093,0.24092 -0.59136,0.32853 -0.30663,0.0438 -0.83228,0.0657 -1.57694,0.0657 -0.74468,0 -1.79598,0 -3.1539,0 l 0,-45.862912 m 13.27265,19.843272 c -2e-5,-1.79594 -0.8104,-2.69393 -2.43113,-2.69396 -0.8761,3e-5 -1.79598,0.26286 -2.75966,0.78848 -0.9199,0.52567 -1.81788,1.31415 -2.69395,2.36542 l 0,8.14757 c 2.2778,-0.91987 4.16137,-2.05878 5.65073,-3.41673 1.48932,-1.40171 2.23399,-3.13197 2.23401,-5.19078"
         style="font-size:65.70617676px;text-align:center;text-anchor:middle"
         id="path3036"
         inkscape:connector-curvature="0" />
    </g>
    <text
       xml:space="preserve"
       style="font-size:40px;font-style:normal;font-variant:normal;font-weight:normal;font-stretch:normal;line-height:125%;letter-spacing:0px;word-spacing:0px;fill:#000000;fill-opacity:1;stroke:none;font-family:Yanone Kaffeesatz;-inkscape-font-specification:Yanone Kaffeesatz"
       x="717.75702"
       y="-28.971964"
       id="text3071"
       sodipodi:linespacing="125%"><tspan
         sodipodi:role="line"
         id="tspan3073"
         x="717.75702"
         y="-28.971964" /></text>
  </g>
  <flowRoot
     xml:space="preserve"
     id="flowRoot3049"
     style="font-size:200px;font-style:normal;font-variant:normal;font-weight:normal;font-stretch:normal;text-align:center;line-height:125%;letter-spacing:0px;word-spacing:0px;text-anchor:middle;fill:#000000;fill-opacity:1;stroke:none;font-family:Yanone Kaffeesatz;-inkscape-font-specification:Yanone Kaffeesatz"
     transform="translate(-73.640625,-57.884749)"><flowRegion
       id="flowRegion3051"><rect
         id="rect3053"
         width="992.71027"
         height="303.83179"
         x="167.28972"
         y="-173.83177"
         style="font-size:200px;text-align:center;text-anchor:middle" /></flowRegion><flowPara
       id="flowPara3055"
       style="font-size:200px;-inkscape-font-specification:Ubuntu;font-family:Ubuntu;font-weight:normal;font-style:normal;font-stretch:normal;font-variant:normal"><flowSpan
         style="-inkscape-font-specification:URW Bookman L;font-family:URW Bookman L;font-weight:normal;font-style:normal;font-stretch:normal;font-variant:normal"
         id="flowSpan3057">JBrenn</flowSpan><flowSpan
         style="-inkscape-font-specification:Ume Gothic;font-family:Ume Gothic;font-weight:normal;font-style:normal;font-stretch:normal;font-variant:normal"
         id="flowSpan3061">.io</flowSpan></flowPara></flowRoot></svg>
