<?xml version="1.0" encoding="UTF-8" standalone="no"?>
<svg
   xmlns:dc="http://purl.org/dc/elements/1.1/"
   xmlns:cc="http://creativecommons.org/ns#"
   xmlns:rdf="http://www.w3.org/1999/02/22-rdf-syntax-ns#"
   xmlns:svg="http://www.w3.org/2000/svg"
   xmlns="http://www.w3.org/2000/svg"
   xmlns:sodipodi="http://sodipodi.sourceforge.net/DTD/sodipodi-0.dtd"
   xmlns:inkscape="http://www.inkscape.org/namespaces/inkscape"
   class="title"
   viewBox="0 0 1200 400"
   id="svg2"
   version="1.1"
   inkscape:version="0.48.4 r9939"
   width="100%"
   height="100%"
   sodipodi:docname="title.svg">
  <metadata
     id="metadata70">
    <rdf:RDF>
      <cc:Work
         rdf:about="">
        <dc:format>image/svg+xml</dc:format>
        <dc:type
           rdf:resource="http://purl.org/dc/dcmitype/StillImage" />
        <dc:title />
      </cc:Work>
    </rdf:RDF>
  </metadata>
  <defs
     id="defs68" />
  <sodipodi:namedview
     pagecolor="#ffffff"
     bordercolor="#666666"
     borderopacity="1"
     objecttolerance="10"
     gridtolerance="10"
     guidetolerance="10"
     inkscape:pageopacity="0"
     inkscape:pageshadow="2"
     inkscape:window-width="1855"
     inkscape:window-height="1056"
     id="namedview66"
     showgrid="true"
     inkscape:zoom="0.535"
     inkscape:cx="-93.01586"
     inkscape:cy="253.12854"
     inkscape:window-x="65"
     inkscape:window-y="24"
     inkscape:window-maximized="1"
     inkscape:current-layer="flowRoot3063">
    <inkscape:grid
       type="xygrid"
       id="grid3047" />
  </sodipodi:namedview>
  <g
     class="mrloh"
     id="g4">
    <g
       transform="matrix(1.1095171,0,0,1.0822275,-269.40767,188.91983)"
       style="font-size:40px;font-style:normal;font-variant:normal;font-weight:normal;font-stretch:normal;line-height:125%;letter-spacing:0px;word-spacing:0px;fill:#000000;fill-opacity:1;stroke:none;font-family:Yanone Kaffeesatz;-inkscape-font-specification:Yanone Kaffeesatz"
       id="flowRoot3063">
      <path
         d="m 517.25353,-139.64154 c -5e-5,-2.9309 0.1628,-5.2106 0.4885,-6.83913 0.32563,-1.62822 1.30265,-2.76807 2.93106,-3.41957 1.79116,-0.81402 4.55937,-1.30252 8.30466,-1.46554 3.74519,-0.16266 9.11877,-0.24408 16.12081,-0.24425 l 0,131.653304 c -7e-5,13.8411269 -2.76828,24.2626529 -8.30465,31.264606 -5.5365,6.839136 -14.98101,10.258698 -28.33356,10.2587 -5.86213,-2e-6 -10.58439,-0.488511 -14.16676,-1.465529 -3.58243,-0.81418 -6.35065,-1.954035 -8.30466,-3.419566 -1.79122,-1.62836 -3.01248,-3.41956 -3.66383,-5.373605 -0.65135,-1.9540281 -0.97703,-3.9894811 -0.97702,-6.1063671 -10e-6,-3.582386 0.40708,-6.513439 1.22128,-8.793171 0.81417,-2.279687 1.62835,-4.315138 2.44255,-6.106368 2.2797,1.79123 5.21074,3.419592 8.79317,4.885094 3.58236,1.465551 7.16476,2.198314 10.74721,2.198294 2.60534,2e-5 4.72222,-0.325652 6.35062,-0.97702 1.62832,-0.651322 2.93101,-1.791177 3.90808,-3.419566 0.97697,-1.628337 1.62832,-3.9080459 1.95403,-6.8391329 0.32562,-2.931021 0.48846,-6.757674 0.48851,-11.479973 l 0,-114.31121"
         style="font-weight:bold;-inkscape-font-specification:Yanone Kaffeesatz Bold"
         id="path3000"
         inkscape:connector-curvature="0" />
      <path
         d="m 559.64317,-146.72493 c 0,-1.62821 0.40708,-2.84949 1.22127,-3.66382 0.97702,-0.81401 2.84964,-1.22111 5.61786,-1.22128 l 23.93696,0 c 5.04789,1.7e-4 10.0144,0.5701 14.89954,1.70979 5.04788,0.97719 9.52587,2.84981 13.434,5.61785 3.90802,2.76839 7.00191,6.67646 9.28169,11.72423 2.44248,4.88525 3.66375,11.31727 3.66383,19.29612 -8e-5,6.18792 -0.65142,11.64293 -1.95405,16.365074 -1.30277,4.722366 -3.09395,8.711858 -5.37359,11.968475 -2.11695,3.256837 -4.5595,5.780802 -7.32765,7.571904 -2.60545,1.791291 -5.21082,2.849732 -7.81615,3.17531 2.93099,0.325768 6.02489,1.05853 9.28167,2.198292 3.41951,0.977111 6.51341,2.768309 9.28169,5.373605 2.76816,2.442631 5.04785,5.943612 6.83914,10.502954 1.79111,4.396655 2.68671,10.177347 2.68679,17.342086 -8e-5,8.141875 -0.81425,15.713764 -2.44254,22.715691 -1.62845,7.0019979 -4.31523,13.1897769 -8.06041,18.5633599 -3.58247,5.210778 -8.30473,9.3631051 -14.16677,12.4569921 -5.69933,2.931057 -12.7013,4.396584 -21.00591,4.396584 l -31.99737,0 0,-166.093217 m 27.84504,62.529206 4.64084,0 c 2.93102,1.05e-4 5.21071,-2.116761 6.83913,-6.350621 1.62833,-4.233638 2.4425,-9.851485 2.44254,-16.853575 -4e-5,-4.23361 -0.2443,-7.65317 -0.73276,-10.2587 -0.48855,-2.76807 -1.1399,-4.88496 -1.95403,-6.35062 -0.6514,-1.46538 -1.46557,-2.44241 -2.44256,-2.93106 -0.97704,-0.48836 -2.03549,-0.73261 -3.17531,-0.73277 l -5.61785,0 0,43.477346 m 0,79.8713019 4.8851,0 c 3.74519,2.2e-5 6.67624,-2.768195 8.79316,-8.3046609 2.27967,-5.699241 3.41951,-13.596802 3.41956,-23.69271 -5e-5,-5.536379 -0.24429,-9.932959 -0.73275,-13.189755 -0.48856,-3.256657 -1.22133,-5.699202 -2.19829,-7.327643 -0.97708,-1.791123 -2.19834,-2.930976 -3.66383,-3.419565 -1.46556,-0.651265 -3.17535,-0.976939 -5.12936,-0.97702 l -5.37359,0 0,56.9113539"
         style="font-weight:bold;-inkscape-font-specification:Yanone Kaffeesatz Bold"
         id="path3002"
         inkscape:connector-curvature="0" />
      <path
         d="m 647.67793,-94.210163 c 4.23372,-2.93094 9.20024,-5.454906 14.89954,-7.571907 5.86207,-2.27958 12.2127,-3.41944 19.05186,-3.41956 6.67625,1.2e-4 11.07282,0.97715 13.18977,2.93106 2.1168,1.95416 3.17524,5.048046 3.17531,9.281682 -7e-5,1.62847 -0.1629,3.908179 -0.48852,6.839128 -0.32574,2.931161 -1.05851,5.94363 -2.19829,9.037425 -1.79125,-0.814083 -3.41962,-1.302599 -4.8851,-1.465524 -1.46558,-0.325578 -2.84968,-0.488409 -4.15233,-0.488515 -1.46557,1.06e-4 -3.17535,0.325768 -5.12936,0.97702 -1.95406,0.651441 -3.74527,1.62846 -5.3736,2.931058 l -0.24425,89.641489 c -4e-5,1.302696 -0.16287,2.279713 -0.48852,2.931056 -0.32569,0.651348 -1.38413,1.139857 -3.17531,1.46553 -1.62838,0.162836 -4.31518,0.325672 -8.06039,0.488508 -3.74527,0 -9.11887,0 -16.12081,0 l 0,-113.57845"
         style="font-weight:bold;-inkscape-font-specification:Yanone Kaffeesatz Bold"
         id="path3004"
         inkscape:connector-curvature="0" />
      <path
         d="m 743.79597,-105.20163 c 9.77014,1.2e-4 17.42345,3.09401 22.95995,9.281686 5.53636,6.187895 8.30458,16.36516 8.30466,30.531838 -8e-5,5.862193 -0.24434,11.968556 -0.73277,18.319105 -0.48858,6.187846 -1.38418,11.642863 -2.68679,16.365067 -2.93113,0.651394 -6.26928,1.221323 -10.01445,1.709783 -3.58247,0.325721 -7.32771,0.651394 -11.23572,0.977018 -3.74529,0.32572 -7.49052,0.569975 -11.23572,0.732765 -3.58243,0.162885 -6.83917,0.244301 -9.77019,0.244255 0.32563,7.816191 1.54692,13.515462 3.66382,17.0978319 2.27969,3.419592 6.35059,5.129373 12.21274,5.129349 4.39655,2.4e-5 8.71171,-0.569903 12.94551,-1.709783 4.39652,-1.302665 8.71168,-3.012446 12.94549,-5.1293489 0.81411,2.4425749 1.38404,5.4550479 1.70978,9.0374259 0.32561,3.41958405 0.48844,6.513474 0.48851,9.281679 -7e-5,2.442558 -0.89566,4.6408481 -2.6868,6.5948771 -1.79126,1.791207 -4.31523,3.338153 -7.57189,4.64084 -3.09395,1.302693 -6.75778,2.279711 -10.99146,2.931058 -4.23381,0.651344 -8.71179,0.977016 -13.43401,0.977019 -5.53647,-3e-6 -10.66583,-0.814185 -15.38805,-2.442548 -4.55944,-1.628363 -8.54894,-4.559416 -11.96849,-8.793171 -3.25673,-4.3965711 -5.86212,-10.34009705 -7.81615,-17.8305951 -1.79121,-7.4904449 -2.6868,-17.0163679 -2.6868,-28.5778039 0,-14.818051 1.13986,-26.705102 3.41957,-35.661191 2.44253,-9.11875 5.61784,-16.120707 9.52592,-21.005907 3.90807,-5.047816 8.46748,-8.385959 13.67828,-10.014439 5.21073,-1.79109 10.66574,-2.68669 16.36506,-2.68681 m -3.66382,23.692713 c -3.74528,9.4e-5 -6.43207,2.686901 -8.06041,8.060405 -1.6284,5.373691 -2.60541,13.678345 -2.93106,24.913982 3.41954,7e-5 6.8391,-0.162767 10.25871,-0.488508 3.41952,-0.325605 6.02491,-0.895532 7.81615,-1.709785 0.48846,-1.465456 0.81414,-3.419492 0.97702,-5.862114 0.16277,-2.605305 0.2442,-4.885014 0.24425,-6.839132 -5e-5,-3.907988 -0.16288,-7.001878 -0.48851,-9.28168 -0.32572,-2.442452 -0.81424,-4.31507 -1.46553,-5.617857 -0.65138,-1.302598 -1.54699,-2.116777 -2.6868,-2.442545 -0.97706,-0.488409 -2.19833,-0.732672 -3.66382,-0.732766"
         style="font-weight:bold;-inkscape-font-specification:Yanone Kaffeesatz Bold"
         id="path3006"
         inkscape:connector-curvature="0" />
      <path
         d="m 787.93357,-97.141219 c 1.95403,-0.976906 4.39658,-1.872505 7.32765,-2.686801 3.09387,-0.9769 6.35059,-1.8725 9.77018,-2.6868 3.58237,-0.81407 7.16479,-1.46541 10.74722,-1.95404 3.58236,-0.48839 6.9205,-0.73265 10.01444,-0.73277 6.18774,1.2e-4 11.47991,0.48863 15.87656,1.46553 4.3965,0.97715 7.97891,2.68693 10.74721,5.129343 2.93098,2.442676 5.04784,5.699397 6.35061,9.770203 1.46545,4.071011 2.19821,9.11894 2.1983,15.143781 l 0,88.175966 c -9e-5,1.302696 -0.16293,2.279713 -0.48851,2.931056 -0.32575,0.651348 -1.4656,1.139857 -3.41957,1.46553 -1.79127,0.162836 -4.64091,0.325672 -8.54891,0.488508 -3.74531,0 -9.03749,0 -15.87657,0 l 0,-84.512138 c -6e-5,-6.350532 -0.48854,-10.665697 -1.46551,-12.945503 -0.97708,-2.442449 -3.17537,-3.663721 -6.59489,-3.663815 -3.58244,9.4e-5 -6.67633,0.977114 -9.28168,2.931047 l 0,93.305315 c -3e-5,1.302696 -0.16286,2.279713 -0.4885,2.931056 -0.32571,0.651348 -1.38415,1.139857 -3.17531,1.46553 -1.6284,0.162836 -4.31521,0.325672 -8.06042,0.488508 -3.74525,0 -8.95602,0 -15.6323,0 l 0,-116.509506"
         style="font-weight:bold;-inkscape-font-specification:Yanone Kaffeesatz Bold"
         id="path3008"
         inkscape:connector-curvature="0" />
      <path
         d="m 876.18967,-97.141219 c 1.95404,-0.976906 4.39658,-1.872505 7.32764,-2.686801 3.09389,-0.9769 6.35062,-1.8725 9.7702,-2.6868 3.58237,-0.81407 7.16477,-1.46541 10.74721,-1.95404 3.58235,-0.48839 6.9205,-0.73265 10.01443,-0.73277 6.18774,1.2e-4 11.47993,0.48863 15.87657,1.46553 4.39652,0.97715 7.97892,2.68693 10.7472,5.129343 2.93099,2.442676 5.04786,5.699397 6.35062,9.770203 1.46546,4.071011 2.19822,9.11894 2.1983,15.143781 l 0,88.175966 c -8e-5,1.302696 -0.16292,2.279713 -0.4885,2.931056 -0.32575,0.651348 -1.46562,1.139857 -3.41958,1.46553 -1.79128,0.162836 -4.64091,0.325672 -8.54891,0.488508 -3.74531,0 -9.03748,0 -15.87657,0 l 0,-84.512138 c -3e-5,-6.350532 -0.48855,-10.665697 -1.46552,-12.945503 -0.97707,-2.442449 -3.17536,-3.663721 -6.59487,-3.663815 -3.58243,9.4e-5 -6.67633,0.977114 -9.28169,2.931047 l 0,93.305315 c -3e-5,1.302696 -0.16286,2.279713 -0.48851,2.931056 -0.3257,0.651348 -1.38414,1.139857 -3.17531,1.46553 -1.62838,0.162836 -4.31519,0.325672 -8.0604,0.488508 -3.74526,0 -8.95602,0 -15.63231,0 l 0,-116.509506"
         style="font-weight:bold;-inkscape-font-specification:Yanone Kaffeesatz Bold"
         id="path3010"
         inkscape:connector-curvature="0" />
      <path
         d="m 985.84881,10.242887 c 0,-0.8963701 0.31632,-1.6609231 0.94913,-2.2936621 0.63273,-0.659093 1.39725,-0.988642 2.29365,-0.988647 0.8963,5e-6 1.66091,0.329554 2.29364,0.988647 0.65913,0.632739 0.98861,1.397292 0.98861,2.2936621 0,0.870011 -0.32948,1.647745 -0.98861,2.333206 -0.65915,0.659096 -1.42366,0.988647 -2.29364,0.988647 -0.87008,0 -1.6346,-0.329551 -2.29365,-0.988647 -0.63281,-0.685461 -0.94913,-1.463195 -0.94913,-2.333206"
         style="font-size:136.88787842px;font-style:normal;font-variant:normal;font-weight:normal;font-stretch:normal;font-family:Sawasdee;-inkscape-font-specification:Sawasdee"
         id="path3012"
         inkscape:connector-curvature="0" />
      <path
         d="m 1007.9753,-83.355263 c 0,-1.697994 0.5917,-3.164517 1.7753,-4.399597 1.2349,-1.234867 2.7272,-1.852353 4.4766,-1.852461 1.6982,1.08e-4 3.1389,0.617594 4.3226,1.852461 1.2349,1.23508 1.8523,2.701603 1.8525,4.399597 -2e-4,1.749644 -0.5919,3.241904 -1.7754,4.476781 -1.1835,1.183607 -2.65,1.775367 -4.3997,1.775273 -1.7494,9.4e-5 -3.2417,-0.591666 -4.4766,-1.775273 -1.1836,-1.234877 -1.7753,-2.727137 -1.7753,-4.476781 m 9.7253,96.791113 -6.9466,0 0,-78.266498 6.9466,0 0,78.266498"
         style="font-size:136.88787842px;font-style:normal;font-variant:normal;font-weight:normal;font-stretch:normal;font-family:Sawasdee;-inkscape-font-specification:Sawasdee"
         id="path3014"
         inkscape:connector-curvature="0" />
      <path
         d="m 1074.1584,-64.710273 c 5.2371,7.7e-5 10.2497,1.022564 15.0379,3.067464 4.7883,2.045047 8.9282,4.813242 12.4195,8.304594 3.4913,3.491484 6.2595,7.656246 8.3046,12.494299 2.0449,4.838162 3.0674,9.900718 3.0675,15.187684 -10e-5,5.336919 -1.0226,10.424414 -3.0675,15.262498 -2.0451,4.8381309 -4.8133,9.0028929 -8.3046,12.4942999 -3.4913,3.441551 -7.6312,6.209746 -12.4195,8.3045951 -4.7882,2.044976 -9.8008,3.067461 -15.0379,3.067463 -10.7236,-2e-6 -19.8762,-3.8156211 -27.4575,-11.4468741 -7.5815,-7.631232 -11.3721,-16.8585489 -11.3721,-27.6819819 0,-7.082553 1.7207,-13.616492 5.1623,-19.601836 3.4914,-6.035109 8.2048,-10.773461 14.1402,-14.215072 5.9853,-3.491348 12.4944,-5.237056 19.5271,-5.237133 m -32.171,39.054041 c 0,8.928091 3.1423,16.5842709 9.4268,22.9685629 6.3344,6.334444 13.9656,9.50166 22.8938,9.501654 8.9281,6e-6 16.5341,-3.16721 22.8188,-9.501654 6.3346,-6.384292 9.5016,-14.0404719 9.5017,-22.9685629 -10e-5,-8.878139 -3.1671,-16.484442 -9.5017,-22.818932 -6.2847,-6.334367 -13.8907,-9.501582 -22.8188,-9.501652 -8.9282,7e-5 -16.5594,3.167285 -22.8938,9.501652 -6.2845,6.33449 -9.4268,13.940793 -9.4268,22.818932"
         style="font-size:136.88787842px;font-style:normal;font-variant:normal;font-weight:normal;font-stretch:normal;font-family:Sawasdee;-inkscape-font-specification:Sawasdee"
         id="path3016"
         inkscape:connector-curvature="0" />
      <path
         d="m 618.17416,112.00512 c -0.10698,-0.64192 -0.10698,-1.12339 0,-1.44442 0.16049,-0.32092 0.6152,-0.48142 1.36416,-0.48147 l 5.37644,0 5.77765,31.05491 c 0.64196,3.5843 1.12343,6.84761 1.44441,9.7899 0.37447,2.94235 0.69544,5.69744 0.96296,8.26527 l 0.48146,0 c 0.10698,-3.20979 0.34772,-6.28586 0.72221,-9.2282 0.37445,-2.99581 0.82919,-5.93812 1.36416,-8.82697 l 4.89497,-26.40069 c 0.10698,-0.6954 0.24071,-1.17688 0.40122,-1.44441 0.21398,-0.32093 0.64195,-0.48142 1.28392,-0.48147 l 4.65423,0 5.61716,28.32657 c 0.69544,3.63781 1.20364,6.90111 1.52466,9.7899 0.32095,2.88886 0.61518,5.61718 0.8827,8.18503 l 0.48147,0 c 0.21395,-2.56785 0.48142,-5.42993 0.80246,-8.58625 0.32094,-3.20979 0.72216,-6.33936 1.20367,-9.38868 l 5.13569,-29.12902 c 0.10699,-0.64192 0.26745,-1.12339 0.48148,-1.44442 0.21394,-0.32092 0.61516,-0.48142 1.20367,-0.48147 l 5.53693,0 -10.51213,56.41239 c -0.58851,0.0535 -1.09673,0.10699 -1.52466,0.16049 -0.37451,0.0536 -0.74899,0.0802 -1.12343,0.0802 -0.37451,0.0535 -0.77576,0.0802 -1.20368,0.0802 -0.42802,0.0536 -0.96297,0.0802 -1.6049,0.0802 -0.96298,0 -1.73868,-0.40122 -2.32712,-1.20367 -0.535,-0.85596 -0.93623,-1.97939 -1.20367,-3.37032 l -4.09251,-17.97491 c -0.21401,-1.06993 -0.45475,-2.35385 -0.7222,-3.85178 -0.21402,-1.55137 -0.42801,-3.15628 -0.64196,-4.81471 -0.21402,-1.71188 -0.42802,-3.39701 -0.64197,-5.05545 -0.16052,-1.65838 -0.32102,-3.18303 -0.48148,-4.57398 -0.16051,1.39095 -0.34775,2.9156 -0.56171,4.57398 -0.214,1.65844 -0.42801,3.31683 -0.64196,4.9752 -0.16052,1.65842 -0.34776,3.26334 -0.56172,4.81471 -0.21401,1.49795 -0.40124,2.78186 -0.56172,3.85179 l -4.41348,22.22792 c -1.01646,0.10699 -1.9259,0.18722 -2.72834,0.24073 -0.74897,0.0536 -1.81891,0.0802 -3.20979,0.0802 -0.85598,0 -1.55143,-0.45472 -2.08639,-1.36417 -0.53498,-0.90945 -0.93621,-2.11313 -1.20368,-3.61103 -0.37447,-1.6584 -0.80247,-3.63778 -1.28393,-5.93814 -0.42799,-2.30036 -0.90945,-4.76121 -1.44441,-7.38257 -0.53497,-2.67482 -1.06995,-5.4299 -1.6049,-8.26526 -0.53497,-2.8353 -1.04319,-5.61714 -1.52466,-8.34551 -1.17692,-6.31258 -2.40737,-12.94618 -3.69128,-19.90081"
         style="font-size:65.70617676px;text-align:center;text-anchor:middle"
         id="path3018"
         inkscape:connector-curvature="0" />
      <path
         d="m 690.20303,151.96723 -13.80219,0 -3.12955,13.16022 c -0.10699,0.42798 -0.321,0.74896 -0.64196,0.96295 -0.321,0.21399 -1.12345,0.32096 -2.40738,0.32096 -0.42797,0 -1.04318,-0.0267 -1.84563,-0.0802 -0.74896,0 -1.4979,-0.0536 -2.24686,-0.1605 l 14.28365,-55.20872 c 0.16048,-0.7489 0.98968,-1.12338 2.48761,-1.12344 1.2304,6e-5 2.24684,0.0803 3.0493,0.24074 l 14.3639,54.96799 c 0.10699,0.42797 -0.0267,0.77571 -0.40122,1.04318 -0.32102,0.21399 -1.12347,0.32097 -2.40736,0.32097 -0.4815,0 -1.04321,0 -1.68515,0 -0.64198,0 -1.3642,-0.0535 -2.16662,-0.16048 l -3.45054,-14.28366 m -12.43801,-5.93813 11.07384,0 -2.72833,-11.39483 c -0.32102,-1.33738 -0.642,-2.70156 -0.96296,-4.0925 -0.2675,-1.39088 -0.53498,-2.75507 -0.80244,-4.0925 -0.21401,-1.39089 -0.428,-2.70156 -0.64196,-3.93203 -0.16051,-1.23038 -0.29426,-2.32706 -0.40123,-3.29006 -0.10698,0.963 -0.2675,2.05968 -0.48147,3.29006 -0.21401,1.23047 -0.45475,2.51439 -0.72222,3.85177 -0.21398,1.33746 -0.45473,2.72837 -0.7222,4.17276 -0.26749,1.39094 -0.56174,2.75512 -0.8827,4.0925 l -2.72833,11.39483"
         style="font-size:65.70617676px;text-align:center;text-anchor:middle"
         id="path3020"
         inkscape:connector-curvature="0" />
      <path
         d="m 714.03209,116.17786 0,48.7891 c -1e-5,0.321 -0.0535,0.58847 -0.16049,0.80246 -0.0536,0.1605 -0.29425,0.29423 -0.7222,0.40123 -0.3745,0.0535 -1.01644,0.0802 -1.92588,0.0802 -0.85597,0 -2.08639,0 -3.69129,0 l 0,-50.07302 -10.91335,0 0,-4.73446 c 0,-0.90939 0.45472,-1.36412 1.36416,-1.36418 l 27.28339,0 0,4.81471 c -2e-5,0.856 -0.45475,1.28397 -1.36418,1.28393 l -9.87016,0"
         style="font-size:65.70617676px;text-align:center;text-anchor:middle"
         id="path3022"
         inkscape:connector-curvature="0" />
      <path
         d="m 749.74499,160.39299 c -4e-5,1.39091 -0.0267,2.48761 -0.0802,3.29005 -2e-5,0.74896 -0.0535,1.31068 -0.16051,1.68515 -0.0536,0.37448 -0.1605,0.6152 -0.32097,0.72221 -0.1605,0.10699 -0.40125,0.16049 -0.72222,0.16049 l -19.01811,0 0,-54.80749 c 0,-0.21394 0.0536,-0.42791 0.1605,-0.64196 0.10697,-0.16043 0.24073,-0.32094 0.40122,-0.48147 0.21399,-0.16044 0.48148,-0.24069 0.80246,-0.24074 l 19.1786,0 c -2e-5,1.33748 -2e-5,2.40741 0,3.20981 -2e-5,0.74901 -0.0536,1.33746 -0.16049,1.76539 -0.0535,0.37453 -0.1605,0.61527 -0.32099,0.72221 -0.1605,0.10704 -0.40124,0.16055 -0.72219,0.16048 l -12.759,0 0,16.77126 12.03678,0 c -2e-5,1.23045 -2e-5,2.2469 0,3.04932 -2e-5,0.80249 -0.0535,1.41769 -0.16048,1.84565 -0.0536,0.42799 -0.16051,0.72224 -0.32097,0.8827 -0.16052,0.16051 -0.40127,0.24076 -0.72222,0.24072 l -10.83311,0 0,21.66622 13.72193,0"
         style="font-size:65.70617676px;text-align:center;text-anchor:middle"
         id="path3024"
         inkscape:connector-curvature="0" />
      <path
         d="m 755.06624,111.4434 c 0,-0.21394 0.0536,-0.42791 0.1605,-0.64196 0.10697,-0.16043 0.24073,-0.32094 0.40123,-0.48147 0.16047,-0.16044 0.42796,-0.24069 0.80244,-0.24074 l 7.94428,0 c 5.08217,5e-5 8.80021,1.25722 11.15409,3.77152 2.40733,2.4609 3.61101,6.49992 3.61102,12.11703 -1e-5,4.33328 -0.64199,7.75708 -1.92586,10.27139 -1.28396,2.46089 -2.96911,4.27977 -5.05546,5.45668 0.64194,0.80247 1.33738,1.87241 2.08637,3.20981 0.80243,1.33744 1.57813,2.94234 2.32712,4.81471 0.74892,1.87241 1.39088,4.06578 1.92589,6.58012 0.58843,2.51436 0.98965,5.34967 1.20367,8.50598 -2e-5,0.58847 -0.16052,1.01645 -0.48148,1.28393 -0.32101,0.21399 -1.2572,0.32096 -2.80858,0.32096 -0.535,0 -1.12346,-0.0267 -1.76539,-0.0802 -0.64199,0 -1.33744,-0.0267 -2.08638,-0.0802 -0.21402,-3.37028 -0.58848,-6.33936 -1.12344,-8.90721 -0.53499,-2.56784 -1.12345,-4.76121 -1.76539,-6.58011 -0.64199,-1.87237 -1.31069,-3.39703 -2.00612,-4.57397 -0.64199,-1.23041 -1.20369,-2.16661 -1.68516,-2.80859 -0.26749,0.0536 -0.53497,0.0802 -0.80245,0.0802 -0.26749,1e-5 -0.53498,1e-5 -0.80245,0 l -2.80859,0 0,21.50571 c -10e-6,0.32098 -0.0535,0.58846 -0.16049,0.80245 -0.0535,0.1605 -0.29424,0.29423 -0.72221,0.40123 -0.37448,0.0535 -1.01644,0.0802 -1.92587,0.0802 -0.85598,0 -2.08639,0 -3.69129,0 l 0,-54.80749 m 16.8515,14.20341 c -2e-5,-3.04928 -0.45474,-5.45665 -1.36418,-7.22208 -0.90945,-1.76535 -2.56785,-2.64805 -4.97519,-2.64809 l -4.01227,0 0,21.66621 3.53079,0 c 2.24684,4e-5 3.93199,-0.88267 5.05545,-2.6481 1.17691,-1.81885 1.76538,-4.86815 1.7654,-9.14794"
         style="font-size:65.70617676px;text-align:center;text-anchor:middle"
         id="path3026"
         inkscape:connector-curvature="0" />
      <path
         d="m 850.16395,165.95472 c -0.85998,-2.26712 -1.79811,-4.33879 -2.81436,-6.21506 -2.65805,2.34532 -5.39423,4.14337 -8.20856,5.39422 -2.81439,1.17266 -5.58966,1.75897 -8.32582,1.75897 -3.518,0 -6.60597,-0.54724 -9.26396,-1.64171 -2.57984,-1.09448 -4.7688,-2.54074 -6.56686,-4.33881 -1.71989,-1.87623 -3.0098,-4.0261 -3.86974,-6.44958 -0.85995,-2.42348 -1.28992,-4.96422 -1.28992,-7.62223 0,-3.75246 0.93812,-7.30949 2.81437,-10.67114 1.95441,-3.43975 4.84695,-6.33227 8.67764,-8.6776 -1.87627,-2.57981 -3.4398,-5.2769 -4.69062,-8.09132 -1.17267,-2.81431 -1.75898,-5.74593 -1.75897,-8.79486 -1e-5,-3.12703 0.54723,-5.8632 1.64169,-8.20857 1.09449,-2.423407 2.54075,-4.416907 4.33882,-5.980517 1.79806,-1.56345 3.79154,-2.73612 5.98052,-3.51796 2.2671,-0.78168 4.57334,-1.17256 6.91864,-1.17264 2.18892,8e-5 4.33878,0.35186 6.44958,1.05538 2.11075,0.70367 3.98698,1.75905 5.62873,3.16616 1.64168,1.32907 2.97068,3.04896 3.98702,5.159677 1.01625,2.03265 1.52439,4.41703 1.52446,7.15315 -7e-5,3.75255 -1.13364,7.42685 -3.40071,11.02293 -2.26716,3.51799 -5.82421,6.52779 -10.67113,9.02941 1.56351,1.87628 3.20522,3.79161 4.92516,5.74598 1.71985,1.95447 3.47881,3.94797 5.2769,5.98054 1.09445,-3.98698 1.68077,-8.71667 1.759,-14.18909 l 11.96104,1.52445 c -0.0782,4.37795 -0.66456,8.44311 -1.75898,12.19558 -1.01636,3.75251 -2.34537,7.1532 -3.98701,10.20205 1.87619,2.57985 3.55698,5.23787 5.04239,7.97403 1.48532,2.73619 2.61888,5.47237 3.40069,8.20856 l -13.72001,0 m -8.56036,-14.65813 c -2.18898,-2.73616 -4.45612,-5.39417 -6.80138,-7.97401 -2.34531,-2.57983 -4.65153,-5.12056 -6.91865,-7.62226 -1.7199,1.17269 -3.12707,2.61896 -4.22154,4.33882 -1.0163,1.64174 -1.52446,3.67433 -1.52445,6.09779 -10e-6,2.65804 0.6645,4.96424 1.99353,6.91864 1.40715,1.95443 3.75245,2.93164 7.0359,2.93164 1.79804,0 3.5961,-0.3518 5.39419,-1.05541 1.79804,-0.70357 3.47883,-1.91531 5.0424,-3.63521 M 827.29725,109.902 c -4e-5,1.71993 0.35177,3.47892 1.05539,5.27694 0.70356,1.71993 1.68075,3.51799 2.9316,5.39418 2.50165,-1.40713 4.41698,-3.24428 5.74602,-5.51145 1.32897,-2.34526 1.99347,-4.5733 1.99349,-6.68412 -2e-5,-2.03252 -0.50816,-3.55697 -1.52444,-4.57333 -0.93817,-1.09441 -2.18897,-1.64165 -3.75249,-1.64171 -1.95442,6e-5 -3.51797,0.66456 -4.69058,1.9935 -1.17269,1.32907 -1.75903,3.2444 -1.75899,5.74599"
         style="font-style:normal;font-variant:normal;font-weight:bold;font-stretch:normal;font-family:Ubuntu Mono;-inkscape-font-specification:Ubuntu Mono Bold"
         id="path3028"
         inkscape:connector-curvature="0" />
      <path
         d="m 889.9874,128.93685 c 1.55141,-1.06989 3.26331,-1.92584 5.13571,-2.56784 1.87238,-0.69542 3.79824,-1.04315 5.77766,-1.0432 2.03286,5e-5 3.47727,0.29429 4.33322,0.8827 0.85595,0.58852 1.28391,1.41772 1.28393,2.48761 -2e-5,0.42801 -0.0535,1.01647 -0.16048,1.7654 -0.10698,0.69549 -0.29425,1.39094 -0.56172,2.08637 -1.23046,-0.64193 -2.51438,-0.9629 -3.85176,-0.96295 -0.90947,5e-5 -1.84567,0.16052 -2.80859,0.48147 -0.90946,0.26753 -1.73865,0.72225 -2.4876,1.36419 l -0.0802,31.53636 c -1e-5,0.321 -0.0536,0.58847 -0.16048,0.80246 -0.0536,0.1605 -0.29424,0.29423 -0.72222,0.40123 -0.37448,0.0535 -1.01643,0.0802 -1.92587,0.0802 -0.90946,0 -2.16664,0 -3.77155,0 l 0,-37.31403"
         style="font-size:65.70617676px;text-align:center;text-anchor:middle"
         id="path3030"
         inkscape:connector-curvature="0" />
      <path
         d="m 910.09482,146.18959 c 0,-7.32905 1.1502,-12.62523 3.45056,-15.88856 2.35385,-3.31677 5.64391,-4.97517 9.87017,-4.97522 2.08636,5e-5 3.90526,0.32103 5.45667,0.96296 1.60489,0.58849 2.91556,1.68519 3.93201,3.29005 1.01642,1.55144 1.76538,3.66457 2.24688,6.33938 0.53493,2.62137 0.80243,5.96492 0.80245,10.03065 -2e-5,7.48958 -1.12347,12.89275 -3.37031,16.20953 -2.24688,3.26332 -5.51019,4.89495 -9.78991,4.89495 -2.08639,0 -3.90527,-0.24072 -5.45668,-0.72219 -1.5514,-0.48148 -2.86209,-1.44441 -3.93202,-2.88884 -1.06993,-1.4979 -1.87238,-3.61104 -2.40734,-6.33937 -0.53498,-2.78182 -0.80248,-6.41959 -0.80248,-10.91334 m 7.0616,0.16048 c -2e-5,3.31683 0.10699,5.96491 0.32098,7.94428 0.26748,1.97939 0.64194,3.50405 1.12343,4.57397 0.48146,1.06995 1.06992,1.79215 1.76541,2.16662 0.74893,0.32099 1.57814,0.48148 2.48759,0.48148 0.85593,0 1.63164,-0.21397 2.32711,-0.64196 0.74895,-0.42797 1.3909,-1.23042 1.92587,-2.40736 0.53497,-1.17692 0.93619,-2.75508 1.2037,-4.73446 0.32096,-1.97937 0.48145,-4.54722 0.48146,-7.70355 -10e-6,-3.20977 -0.13375,-5.77763 -0.40123,-7.70355 -0.214,-1.97935 -0.56174,-3.504 -1.04318,-4.57398 -0.42799,-1.0699 -0.98971,-1.79209 -1.68514,-2.16662 -0.69549,-0.37444 -1.52469,-0.56168 -2.48761,-0.5617 -0.90945,2e-5 -1.73865,0.21403 -2.4876,0.64195 -0.69547,0.42802 -1.31068,1.20372 -1.84564,2.32711 -0.53498,1.12347 -0.96295,2.70162 -1.28392,4.73447 -0.2675,1.97941 -0.40125,4.52052 -0.40123,7.6233"
         style="font-size:65.70617676px;text-align:center;text-anchor:middle"
         id="path3032"
         inkscape:connector-curvature="0" />
      <path
         d="m 961.2261,128.93685 c -2e-5,0.42802 -0.0536,0.96298 -0.16048,1.60492 -0.10698,0.642 -0.29426,1.31069 -0.56172,2.00612 -0.64198,-0.37445 -1.47119,-0.69543 -2.48761,-0.96295 -1.01645,-0.32094 -2.05964,-0.48143 -3.12957,-0.48146 -0.96295,3e-5 -1.92589,0.16052 -2.88881,0.48146 -0.90946,0.32102 -1.73868,1.04322 -2.48761,2.16662 -0.74896,1.06998 -1.36419,2.67487 -1.84565,4.81473 -0.48147,2.08639 -0.7222,4.92173 -0.72219,8.506 -10e-6,2.83535 0.13373,5.16244 0.40122,6.98132 0.32097,1.81891 0.77569,3.26332 1.36416,4.33324 0.58847,1.06994 1.31068,1.81889 2.16663,2.24687 0.90943,0.42799 1.97936,0.64197 3.20981,0.64197 1.28391,0 2.48758,-0.18725 3.61104,-0.56172 1.12341,-0.42797 2.03284,-0.85594 2.72834,-1.28393 0.21395,0.74896 0.37445,1.39093 0.48146,1.92589 0.10698,0.53497 0.16047,1.06993 0.1605,1.60491 -3e-5,1.06994 -0.82923,2.03288 -2.48761,2.88882 -1.65843,0.80245 -3.82504,1.20367 -6.49987,1.20367 -1.92588,0 -3.63778,-0.24072 -5.13568,-0.72219 -1.44442,-0.48148 -2.67485,-1.44441 -3.6913,-2.88884 -1.01644,-1.4444 -1.79214,-3.47729 -2.32709,-6.09863 -0.53498,-2.62133 -0.80246,-6.04514 -0.80246,-10.27138 0,-4.8147 0.42796,-8.63973 1.28392,-11.47508 0.90944,-2.8888 2.05964,-5.08217 3.45056,-6.5801 1.39089,-1.55137 2.9423,-2.54108 4.65421,-2.96907 1.71189,-0.48145 3.39704,-0.72218 5.05545,-0.72223 1.87235,5e-5 3.45051,0.34778 4.73446,1.0432 1.2839,0.642 1.92587,1.49795 1.92589,2.56784"
         style="font-size:65.70617676px;text-align:center;text-anchor:middle"
         id="path3034"
         inkscape:connector-curvature="0" />
      <path
         d="m 966.40191,110.23972 c 0,-0.7489 0.0802,-1.31062 0.24074,-1.68516 0.21398,-0.4279 0.56172,-0.72214 1.04319,-0.8827 0.48145,-0.21392 1.15017,-0.32091 2.00613,-0.32097 0.85594,-0.0535 1.95262,-0.0802 3.29005,-0.0802 l 0,21.74647 c 1.33745,-1.1234 2.91554,-2.0061 4.73448,-2.6481 1.81885,-0.69542 3.58425,-1.04314 5.2962,-1.04319 1.33734,5e-5 2.43403,0.18728 3.29004,0.56173 0.85593,0.37452 1.55133,0.88274 2.08638,1.52465 0.53495,0.642 0.90938,1.39095 1.12344,2.24688 0.2139,0.80247 0.32089,1.65843 0.32098,2.56783 -9e-5,1.65845 -0.26752,3.18309 -0.80248,4.57399 -0.4815,1.33745 -1.07,2.54112 -1.7654,3.61102 -0.69549,1.01648 -1.44442,1.89918 -2.24691,2.64811 -0.74893,0.69547 -1.36411,1.23044 -1.84561,1.60489 1.92584,0.85597 3.63778,2.40739 5.13575,4.65423 1.55133,2.24688 2.48757,5.21595 2.80855,8.90722 0.0537,0.42798 0.0805,0.85597 0.0805,1.28392 -9e-5,0.42798 -9e-5,0.88271 0,1.36417 -9e-5,1.28393 -0.0805,2.6481 -0.24075,4.0925 -0.0537,0.321 -0.13376,0.58848 -0.24076,0.80246 -0.0537,0.16051 -0.32096,0.29424 -0.80238,0.40124 -0.48151,0.0536 -1.20376,0.0802 -2.16669,0.0802 -0.96291,0 -2.35389,0 -4.17274,0 0.10699,-0.90945 0.18721,-1.79214 0.24075,-2.64809 0.0537,-0.85594 0.0805,-1.68514 0.0805,-2.48761 0,-0.90945 -0.0537,-1.73864 -0.16053,-2.48759 -0.0537,-0.74896 -0.13367,-1.49792 -0.24067,-2.24687 -0.4815,-3.20979 -1.39097,-5.45667 -2.7284,-6.74061 -1.2839,-1.33739 -2.70155,-1.84561 -4.25297,-1.52465 -0.37451,0.10698 -0.77571,0.24075 -1.20367,0.40123 -0.37451,0.16049 -0.74894,0.32099 -1.12345,0.48145 -0.42797,0.21401 -0.82916,0.42801 -1.20367,0.64197 l 0,15.32685 c 0,0.32098 -0.0268,0.58846 -0.0806,0.80245 -0.0537,0.1605 -0.2942,0.29423 -0.72216,0.40122 -0.37452,0.0536 -1.01646,0.0802 -1.92593,0.0802 -0.90943,0 -2.19336,0 -3.85175,0 l 0,-56.01117 m 16.20953,24.23407 c 0,-2.19335 -0.98968,-3.29002 -2.96907,-3.29008 -1.07,6e-5 -2.19336,0.32103 -3.37026,0.96296 -1.12345,0.64199 -2.22014,1.60494 -3.29005,2.88882 l 0,9.95041 c 2.78177,-1.1234 5.08213,-2.51432 6.90106,-4.17275 1.81885,-1.71186 2.72832,-3.82498 2.72832,-6.33936"
         style="font-size:65.70617676px;text-align:center;text-anchor:middle"
         id="path3036"
         inkscape:connector-curvature="0" />
    </g>
    <text
       xml:space="preserve"
       style="font-size:40px;font-style:normal;font-variant:normal;font-weight:normal;font-stretch:normal;line-height:125%;letter-spacing:0px;word-spacing:0px;fill:#000000;fill-opacity:1;stroke:none;font-family:Yanone Kaffeesatz;-inkscape-font-specification:Yanone Kaffeesatz"
       x="717.75702"
       y="-28.971964"
       id="text3071"
       sodipodi:linespacing="125%"><tspan
         sodipodi:role="line"
         id="tspan3073"
         x="717.75702"
         y="-28.971964" /></text>
  </g>
  <flowRoot
     xml:space="preserve"
     id="flowRoot3049"
     style="font-size:200px;font-style:normal;font-variant:normal;font-weight:normal;font-stretch:normal;text-align:center;line-height:125%;letter-spacing:0px;word-spacing:0px;text-anchor:middle;fill:#000000;fill-opacity:1;stroke:none;font-family:Yanone Kaffeesatz;-inkscape-font-specification:Yanone Kaffeesatz"
     transform="translate(-73.640625,-57.884749)"><flowRegion
       id="flowRegion3051"><rect
         id="rect3053"
         width="992.71027"
         height="303.83179"
         x="167.28972"
         y="-173.83177"
         style="font-size:200px;text-align:center;text-anchor:middle" /></flowRegion><flowPara
       id="flowPara3055"
       style="font-size:200px;-inkscape-font-specification:Ubuntu;font-family:Ubuntu;font-weight:normal;font-style:normal;font-stretch:normal;font-variant:normal"><flowSpan
         style="-inkscape-font-specification:URW Bookman L;font-family:URW Bookman L;font-weight:normal;font-style:normal;font-stretch:normal;font-variant:normal"
         id="flowSpan3057">JBrenn</flowSpan><flowSpan
         style="-inkscape-font-specification:Ume Gothic;font-family:Ume Gothic;font-weight:normal;font-style:normal;font-stretch:normal;font-variant:normal"
         id="flowSpan3061">.io</flowSpan></flowPara></flowRoot></svg>
