<?xml version="1.0" encoding="UTF-8" standalone="no"?>
<svg
   xmlns:dc="http://purl.org/dc/elements/1.1/"
   xmlns:cc="http://creativecommons.org/ns#"
   xmlns:rdf="http://www.w3.org/1999/02/22-rdf-syntax-ns#"
   xmlns:svg="http://www.w3.org/2000/svg"
   xmlns="http://www.w3.org/2000/svg"
   xmlns:sodipodi="http://sodipodi.sourceforge.net/DTD/sodipodi-0.dtd"
   xmlns:inkscape="http://www.inkscape.org/namespaces/inkscape"
   class="title"
   viewBox="0 0 200 200"
   id="svg2"
   version="1.1"
   inkscape:version="0.48.4 r9939"
   width="100%"
   height="100%"
   sodipodi:docname="favicon.svg">
  <metadata
     id="metadata10">
    <rdf:RDF>
      <cc:Work
         rdf:about="">
        <dc:format>image/svg+xml</dc:format>
        <dc:type
           rdf:resource="http://purl.org/dc/dcmitype/StillImage" />
      </cc:Work>
    </rdf:RDF>
  </metadata>
  <defs
     id="defs8" />
  <sodipodi:namedview
     pagecolor="#ffffff"
     bordercolor="#666666"
     borderopacity="1"
     objecttolerance="10"
     gridtolerance="10"
     guidetolerance="10"
     inkscape:pageopacity="0"
     inkscape:pageshadow="2"
     inkscape:window-width="1855"
     inkscape:window-height="1056"
     id="namedview6"
     showgrid="true"
     inkscape:zoom="2.36"
     inkscape:cx="-29.421222"
     inkscape:cy="124.47046"
     inkscape:window-x="65"
     inkscape:window-y="24"
     inkscape:window-maximized="1"
     inkscape:current-layer="svg2">
    <inkscape:grid
       type="xygrid"
       id="grid3066" />
  </sodipodi:namedview>
  <g
     id="g3089">
    <path
       transform="matrix(1.0911419,0,0,1.1034493,-19.97992,-22.32624)"
       d="m 194.91526,109.32204 a 82.627121,81.355934 0 1 1 -165.254242,0 82.627121,81.355934 0 1 1 165.254242,0 z"
       sodipodi:ry="81.355934"
       sodipodi:rx="82.627121"
       sodipodi:cy="109.32204"
       sodipodi:cx="112.28814"
       id="path3009"
       style="fill:#000000;fill-opacity:1;stroke:#000000;stroke-width:1.20000005;stroke-miterlimit:10;stroke-opacity:1;stroke-dasharray:none;stroke-dashoffset:0"
       sodipodi:type="arc" />
    <path
       inkscape:connector-curvature="0"
       id="path3018"
       style="font-size:65.70617676px;font-style:normal;font-variant:normal;font-weight:normal;font-stretch:normal;text-align:center;line-height:125%;letter-spacing:0px;word-spacing:0px;text-anchor:middle;fill:#ffffff;fill-opacity:1;stroke:none;font-family:Yanone Kaffeesatz;-inkscape-font-specification:Yanone Kaffeesatz"
       d="m 50.544944,53.064427 c -0.06455,-0.377846 -0.06455,-0.661253 0,-0.850224 0.09684,-0.188907 0.371252,-0.283377 0.823234,-0.283411 l 3.244544,0 3.48665,18.279853 c 0.387402,2.109829 0.677961,4.030709 0.871661,5.762638 0.22598,1.731951 0.419681,3.353674 0.581117,4.865186 l 0.290558,0 c 0.06455,-1.889387 0.209828,-3.70005 0.435831,-5.432001 0.225967,-1.763422 0.500387,-3.495359 0.823234,-5.195823 L 64.055758,54.67041 c 0.06456,-0.409337 0.145261,-0.692747 0.24213,-0.850227 0.12911,-0.188907 0.387379,-0.283377 0.774805,-0.283408 l 2.808701,0 3.389805,16.67387 c 0.419667,2.141323 0.726364,4.062204 0.920102,5.762638 0.193677,1.700464 0.371239,3.306441 0.532676,4.817941 l 0.290558,0 c 0.129111,-1.5115 0.290534,-3.196209 0.484259,-5.054114 0.193677,-1.889378 0.435807,-3.731533 0.726389,-5.526465 l 3.099246,-17.146218 c 0.06456,-0.377846 0.161401,-0.661253 0.290559,-0.850224 0.12911,-0.188907 0.371239,-0.283377 0.726377,-0.283411 l 3.341388,0 -6.343778,33.206035 c -0.355149,0.03145 -0.661858,0.063 -0.92009,0.09443 -0.226016,0.03145 -0.452005,0.04722 -0.677961,0.04722 -0.226016,0.03145 -0.468145,0.04722 -0.726389,0.04722 -0.258305,0.03143 -0.58114,0.04722 -0.968519,0.04722 -0.581128,0 -1.049249,-0.236175 -1.40435,-0.708517 -0.32286,-0.503841 -0.56499,-1.165126 -0.726389,-1.983863 L 67.445552,72.099965 c -0.129148,-0.629788 -0.274433,-1.385545 -0.43582,-2.267271 -0.129159,-0.913191 -0.258293,-1.857884 -0.387415,-2.834086 -0.129146,-1.007659 -0.258281,-1.999581 -0.387403,-2.975791 -0.09683,-0.976164 -0.193714,-1.87362 -0.290558,-2.692379 -0.09683,0.818759 -0.209865,1.716215 -0.338974,2.692379 -0.129158,0.97621 -0.258293,1.952389 -0.387404,2.928555 -0.09683,0.9762 -0.209876,1.9209 -0.338985,2.834084 -0.129148,0.881734 -0.242143,1.637491 -0.338987,2.267271 l -2.663415,13.084031 c -0.613406,0.06301 -1.162233,0.110223 -1.64648,0.1417 -0.451982,0.03144 -1.097666,0.04722 -1.937027,0.04722 -0.51656,0 -0.936241,-0.267665 -1.259088,-0.802993 -0.322836,-0.535319 -0.564965,-1.243848 -0.726378,-2.125564 -0.22599,-0.976182 -0.484271,-2.141295 -0.774818,-3.495365 -0.25828,-1.354058 -0.548826,-2.802591 -0.871661,-4.3456 -0.322837,-1.57448 -0.645684,-3.196205 -0.968519,-4.865183 -0.322837,-1.66894 -0.629545,-3.306417 -0.920091,-4.912414 C 52.06229,61.062786 51.319751,57.158045 50.544944,53.06434" />
    <path
       inkscape:connector-curvature="0"
       id="path3020"
       style="font-size:65.70617676px;font-style:normal;font-variant:normal;font-weight:normal;font-stretch:normal;text-align:center;line-height:125%;letter-spacing:0px;word-spacing:0px;text-anchor:middle;fill:#ffffff;fill-opacity:1;stroke:none;font-family:Yanone Kaffeesatz;-inkscape-font-specification:Yanone Kaffeesatz"
       d="m 94.012436,76.587334 -8.329258,0 -1.888598,7.746511 c -0.06456,0.251908 -0.193714,0.440851 -0.387403,0.566806 -0.193713,0.125966 -0.677972,0.188943 -1.452778,0.188943 -0.25828,0 -0.629545,-0.01578 -1.113792,-0.04722 -0.451982,0 -0.903964,-0.03144 -1.355933,-0.09443 L 88.104475,52.45042 c 0.09683,-0.440823 0.597244,-0.661253 1.501208,-0.661286 0.742516,3.3e-5 1.355898,0.04727 1.840169,0.141704 l 8.668238,32.35581 c 0.0645,0.25192 -0.0161,0.456608 -0.242141,0.614051 -0.19372,0.125966 -0.67798,0.188931 -1.45277,0.188931 -0.29058,0 -0.62955,0 -1.01694,0 -0.38743,0 -0.823257,-0.03144 -1.307505,-0.09443 l -2.082298,-8.407783 m -7.506011,-3.495367 6.682764,0 -1.646479,-6.707337 c -0.193714,-0.787244 -0.387415,-1.590231 -0.581105,-2.408991 -0.161435,-0.818708 -0.32286,-1.621703 -0.48426,-2.408967 -0.129146,-0.818711 -0.258292,-1.590211 -0.387402,-2.314502 -0.09683,-0.724243 -0.177574,-1.369787 -0.24213,-1.936631 -0.06455,0.566844 -0.161436,1.212388 -0.29056,1.936631 -0.129145,0.724291 -0.27443,1.48004 -0.435831,2.267263 -0.129145,0.787272 -0.274419,1.606003 -0.435843,2.456206 -0.161411,0.81876 -0.338987,1.621747 -0.532676,2.408977 l -1.646478,6.707337" />
    <path
       inkscape:connector-curvature="0"
       id="path3022"
       style="font-size:65.70617676px;font-style:normal;font-variant:normal;font-weight:normal;font-stretch:normal;text-align:center;line-height:125%;letter-spacing:0px;word-spacing:0px;text-anchor:middle;fill:#ffffff;fill-opacity:1;stroke:none;font-family:Yanone Kaffeesatz;-inkscape-font-specification:Yanone Kaffeesatz"
       d="m 108.39263,55.520635 0,28.718732 c 0,0.188943 -0.0323,0.346386 -0.0968,0.472353 -0.0323,0.09443 -0.17758,0.173187 -0.43583,0.236177 -0.22601,0.03144 -0.61341,0.04722 -1.16222,0.04722 -0.51654,0 -1.25908,0 -2.2276,0 l 0,-29.474492 -6.585901,0 0,-2.786851 c 0,-0.535294 0.2744,-0.802957 0.82324,-0.80299 l 16.464781,0 0,2.834084 c -1e-5,0.503867 -0.27444,0.755787 -0.82324,0.755757 l -5.95638,0" />
    <path
       inkscape:connector-curvature="0"
       id="path3024"
       style="font-size:65.70617676px;font-style:normal;font-variant:normal;font-weight:normal;font-stretch:normal;text-align:center;line-height:125%;letter-spacing:0px;word-spacing:0px;text-anchor:middle;fill:#ffffff;fill-opacity:1;stroke:none;font-family:Yanone Kaffeesatz;-inkscape-font-specification:Yanone Kaffeesatz"
       d="m 129.9444,81.546986 c -1e-5,0.818739 -0.0161,1.464279 -0.0484,1.936619 -10e-6,0.440864 -0.0323,0.771507 -0.0969,0.991938 -0.0323,0.220421 -0.0968,0.362131 -0.1937,0.425108 -0.0968,0.06301 -0.24213,0.09443 -0.43582,0.09443 l -11.47693,0 0,-32.261333 c 0,-0.125928 0.0323,-0.251887 0.0969,-0.377879 0.0645,-0.09443 0.14528,-0.188906 0.24213,-0.283408 0.12914,-0.09442 0.29056,-0.141671 0.48425,-0.141705 l 11.57379,0 c -3e-5,0.787279 -3e-5,1.417076 0,1.88939 -3e-5,0.44089 -0.0323,0.787277 -0.0969,1.039165 -0.0323,0.220459 -0.0968,0.362163 -0.19371,0.425114 -0.0968,0.06301 -0.24213,0.09451 -0.43582,0.09447 l -7.6997,0 0,9.872062 7.26387,0 c -3e-5,0.724286 -3e-5,1.322593 0,1.794925 -3e-5,0.472361 -0.0323,0.834497 -0.0968,1.0864 -0.0323,0.251928 -0.0969,0.425129 -0.19371,0.519582 -0.0969,0.09449 -0.24213,0.141721 -0.43582,0.141699 l -6.53748,0 0,12.753391 8.28079,0" />
    <path
       inkscape:connector-curvature="0"
       id="path3026"
       style="font-size:65.70617676px;font-style:normal;font-variant:normal;font-weight:normal;font-stretch:normal;text-align:center;line-height:125%;letter-spacing:0px;word-spacing:0px;text-anchor:middle;fill:#ffffff;fill-opacity:1;stroke:none;font-family:Yanone Kaffeesatz;-inkscape-font-specification:Yanone Kaffeesatz"
       d="m 133.15563,52.733784 c 0,-0.125927 0.0323,-0.251885 0.0969,-0.377878 0.0645,-0.09443 0.14528,-0.188906 0.24215,-0.283408 0.0968,-0.09442 0.25824,-0.141672 0.48424,-0.141706 l 4.79416,0 c 3.06695,3.4e-5 5.31069,0.740045 6.7312,2.220035 1.45275,1.448562 2.17914,3.826045 2.17915,7.132447 -10e-6,2.550696 -0.38743,4.566049 -1.16221,6.046049 -0.77482,1.448547 -1.79177,2.519201 -3.05083,3.211964 0.3874,0.472361 0.80707,1.102154 1.25907,1.889392 0.48425,0.787258 0.95235,1.73195 1.40435,2.834085 0.45196,1.102154 0.83936,2.393232 1.16222,3.873249 0.35511,1.480036 0.59723,3.148991 0.72639,5.006889 -1e-5,0.346385 -0.0968,0.598307 -0.29056,0.755749 -0.19372,0.125966 -0.75869,0.188943 -1.69491,0.188943 -0.32284,0 -0.67797,-0.01578 -1.06536,-0.04722 -0.38742,0 -0.80711,-0.01578 -1.25908,-0.04722 -0.12913,-1.983852 -0.35513,-3.731539 -0.67796,-5.243063 -0.32285,-1.511502 -0.67798,-2.802587 -1.06536,-3.873248 -0.38742,-1.102134 -0.79097,-1.999597 -1.21065,-2.692379 -0.38741,-0.724256 -0.72639,-1.275327 -1.01696,-1.65322 -0.16141,0.03149 -0.32283,0.04723 -0.48424,0.04723 -0.16142,1.3e-5 -0.32285,1.3e-5 -0.48426,0 l -1.6949,0 0,12.658915 c -1e-5,0.188944 -0.0323,0.346387 -0.0969,0.472352 -0.0323,0.09443 -0.17755,0.173188 -0.43583,0.236164 -0.22598,0.03145 -0.61339,0.04722 -1.1622,0.04722 -0.51657,0 -1.2591,0 -2.2276,0 l 0,-32.261331 m 10.16942,8.360553 c -1e-5,-1.794896 -0.27442,-3.211943 -0.82324,-4.251131 -0.54883,-1.039134 -1.54964,-1.558718 -3.00241,-1.558746 l -2.42128,0 0,12.75338 2.13074,0 c 1.35591,2.1e-5 2.37286,-0.519561 3.05083,-1.558745 0.71023,-1.070632 1.06535,-2.865549 1.06536,-5.384758" />
    <path
       inkscape:connector-curvature="0"
       id="path3028"
       style="font-size:40px;font-style:normal;font-variant:normal;font-weight:bold;font-stretch:normal;line-height:125%;letter-spacing:0px;word-spacing:0px;fill:#ffffff;fill-opacity:1;stroke:none;font-family:Ubuntu Mono;-inkscape-font-specification:Ubuntu Mono Bold"
       d="m 114.03471,125.46664 c -0.51898,-1.33449 -1.08512,-2.55394 -1.69839,-3.65836 -1.60406,1.38052 -3.25528,2.43891 -4.95365,3.17518 -1.69842,0.69026 -3.3732,1.0354 -5.02442,1.0354 -2.12301,0 -3.986511,-0.32213 -5.590541,-0.96636 -1.556855,-0.64425 -2.877846,-1.49557 -3.962922,-2.55396 -1.037903,-1.10443 -1.816332,-2.36987 -2.335284,-3.79642 -0.518952,-1.42653 -0.778439,-2.92208 -0.778439,-4.48666 0,-2.20882 0.566136,-4.30259 1.698398,-6.28137 1.179435,-2.02472 2.925007,-3.72737 5.236717,-5.10789 -1.132274,-1.51855 -2.07582,-3.106142 -2.830661,-4.76279 -0.707669,-1.656586 -1.061491,-3.38223 -1.061478,-5.17693 -1.3e-5,-1.840657 0.330224,-3.451256 0.990718,-4.83181 0.660495,-1.426493 1.533269,-2.599925 2.618346,-3.520309 1.085085,-0.920301 2.288095,-1.610559 3.609085,-2.070775 1.368141,-0.460129 2.759901,-0.690212 4.175221,-0.690257 1.32097,4.5e-5 2.61833,0.207121 3.89215,0.621233 1.27377,0.414195 2.40603,1.035429 3.39678,1.86369 0.99071,0.782334 1.79272,1.794712 2.40606,3.037143 0.61328,1.196483 0.91993,2.600002 0.91997,4.210567 -4e-5,2.208858 -0.68411,4.371666 -2.05223,6.488426 -1.36818,2.070802 -3.51475,3.842462 -6.43974,5.314982 0.94352,1.10443 1.93426,2.23185 2.97221,3.38225 1.03787,1.15045 2.09935,2.32389 3.18445,3.52032 0.66048,-2.34686 1.0143,-5.13089 1.06152,-8.35212 l 7.21817,0.89734 c -0.0473,2.577 -0.40106,4.96988 -1.06151,7.17868 -0.61334,2.20883 -1.41536,4.21059 -2.40605,6.00525 1.13223,1.51857 2.14653,3.08316 3.04294,4.69376 0.89635,1.6106 1.58043,3.22119 2.05223,4.83179 l -8.27965,0 m -5.16595,-8.62821 c -1.32099,-1.61059 -2.68915,-3.17517 -4.10446,-4.69376 -1.41533,-1.51856 -2.80707,-3.0141 -4.17521,-4.48668 -1.037921,0.69028 -1.887101,1.54159 -2.547591,2.55395 -0.61331,0.96639 -0.91997,2.16283 -0.91996,3.58935 -1e-5,1.56459 0.40101,2.9221 1.20304,4.07252 0.84919,1.15044 2.264501,1.72565 4.245971,1.72565 1.08508,0 2.17015,-0.20707 3.25526,-0.62125 1.08507,-0.41415 2.09937,-1.1274 3.04295,-2.13978 m -8.63349,-24.366107 c -3e-5,1.012411 0.21228,2.047795 0.6369,3.106162 0.42457,1.01241 1.01427,2.070801 1.76914,3.175182 1.50968,-0.828276 2.66553,-1.909677 3.46757,-3.244206 0.802,-1.380484 1.20301,-2.691979 1.20302,-3.93447 -10e-6,-1.196408 -0.30666,-2.093744 -0.91997,-2.692005 -0.56614,-0.644201 -1.32098,-0.966323 -2.26452,-0.966364 -1.17945,4.1e-5 -2.123,0.391183 -2.83064,1.173444 -0.70769,0.782323 -1.06153,1.909744 -1.0615,3.382257" />
    <path
       inkscape:connector-curvature="0"
       id="path3030"
       style="font-size:65.70617676px;font-style:normal;font-variant:normal;font-weight:normal;font-stretch:normal;text-align:center;line-height:125%;letter-spacing:0px;word-spacing:0px;text-anchor:middle;fill:#ffffff;fill-opacity:1;stroke:none;font-family:Yanone Kaffeesatz;-inkscape-font-specification:Yanone Kaffeesatz"
       d="m 79.27119,125.99017 c 0.93623,-0.62977 1.969315,-1.13362 3.099259,-1.51152 1.12993,-0.40933 2.292139,-0.61401 3.48666,-0.61404 1.226776,3e-5 2.098438,0.17323 2.614987,0.51959 0.516537,0.3464 0.774806,0.8345 0.774817,1.46427 -1.1e-5,0.25192 -0.03227,0.59834 -0.09683,1.03917 -0.06456,0.40937 -0.177576,0.81875 -0.338986,1.2281 -0.742541,-0.37786 -1.517358,-0.5668 -2.324429,-0.56682 -0.548852,2e-5 -1.113817,0.0944 -1.694908,0.2834 -0.548839,0.15748 -1.049238,0.42514 -1.501207,0.803 l -0.04842,18.56325 c -1.2e-5,0.18895 -0.03227,0.3464 -0.09683,0.47236 -0.03227,0.0944 -0.177574,0.1732 -0.435843,0.23617 -0.225991,0.0314 -0.613382,0.0473 -1.162207,0.0473 -0.548839,0 -1.307506,0 -2.276025,0 l 0,-21.96415" />
    <path
       inkscape:connector-curvature="0"
       id="path3032"
       style="font-size:65.70617676px;font-style:normal;font-variant:normal;font-weight:normal;font-stretch:normal;text-align:center;line-height:125%;letter-spacing:0px;word-spacing:0px;text-anchor:middle;fill:#ffffff;fill-opacity:1;stroke:none;font-family:Yanone Kaffeesatz;-inkscape-font-specification:Yanone Kaffeesatz"
       d="m 91.405473,136.14564 c 0,-4.31409 0.694111,-7.43158 2.082322,-9.35248 1.420488,-1.95235 3.405944,-2.92852 5.956374,-2.92855 1.259061,3e-5 2.356721,0.18896 3.292961,0.56682 0.96851,0.3464 1.75946,0.99196 2.37287,1.93663 0.61337,0.91322 1.06535,2.15707 1.35592,3.73154 0.32282,1.54301 0.48424,3.51112 0.48426,5.90435 -2e-5,4.40857 -0.67797,7.58905 -2.03389,9.54142 -1.35593,1.92086 -3.32525,2.88131 -5.907951,2.88131 -1.25908,0 -2.35672,-0.1417 -3.29296,-0.4251 -0.936229,-0.28342 -1.727186,-0.85023 -2.372869,-1.70047 -0.645672,-0.88171 -1.129931,-2.12555 -1.452767,-3.73153 -0.322847,-1.63747 -0.48427,-3.77877 -0.48427,-6.42394 m 4.26149,0.0944 c -1.3e-5,1.9524 0.06456,3.51113 0.193689,4.67625 0.161425,1.16513 0.387403,2.06259 0.677972,2.69238 0.290545,0.6298 0.645675,1.05491 1.065375,1.27535 0.45196,0.18894 0.95237,0.28339 1.5012,0.28339 0.51653,0 0.984641,-0.12594 1.404341,-0.37787 0.45196,-0.25192 0.83936,-0.72426 1.16223,-1.41705 0.32282,-0.69277 0.56495,-1.62172 0.72639,-2.78685 0.19369,-1.1651 0.29053,-2.67662 0.29054,-4.53453 -1e-5,-1.88936 -0.0807,-3.40088 -0.24213,-4.53454 -0.12914,-1.16511 -0.33898,-2.06254 -0.62952,-2.69237 -0.2583,-0.62978 -0.59728,-1.05489 -1.01695,-1.27534 -0.4197,-0.22042 -0.920111,-0.33063 -1.501201,-0.33065 -0.54884,2e-5 -1.04924,0.12599 -1.50121,0.37789 -0.41969,0.25193 -0.79096,0.70854 -1.11379,1.36979 -0.322838,0.66132 -0.581118,1.59027 -0.774807,2.78686 -0.161435,1.16514 -0.242142,2.66091 -0.242129,4.48729" />
    <path
       inkscape:connector-curvature="0"
       id="path3034"
       style="font-size:65.70617676px;font-style:normal;font-variant:normal;font-weight:normal;font-stretch:normal;text-align:center;line-height:125%;letter-spacing:0px;word-spacing:0px;text-anchor:middle;fill:#ffffff;fill-opacity:1;stroke:none;font-family:Yanone Kaffeesatz;-inkscape-font-specification:Yanone Kaffeesatz"
       d="m 122.26182,125.99017 c -2e-5,0.25194 -0.0323,0.56684 -0.0969,0.9447 -0.0645,0.37789 -0.17757,0.77152 -0.33898,1.18087 -0.38743,-0.2204 -0.88782,-0.40935 -1.5012,-0.56682 -0.6134,-0.18891 -1.24294,-0.28338 -1.88862,-0.28341 -0.5811,3e-5 -1.16222,0.0944 -1.74332,0.28341 -0.54883,0.18896 -1.04923,0.61406 -1.5012,1.27534 -0.45198,0.62983 -0.82325,1.5745 -1.1138,2.83408 -0.29056,1.22811 -0.43583,2.89708 -0.43581,5.00689 -2e-5,1.66898 0.0806,3.03878 0.24212,4.10943 0.19369,1.07065 0.46811,1.92087 0.82324,2.55067 0.35511,0.62979 0.79093,1.07066 1.3075,1.32258 0.54881,0.25192 1.19449,0.37788 1.93703,0.37788 0.77479,0 1.50118,-0.11028 2.17915,-0.33064 0.67795,-0.25193 1.22677,-0.50384 1.6465,-0.75577 0.12911,0.44086 0.22596,0.81873 0.29054,1.13364 0.0645,0.31489 0.0969,0.62979 0.0969,0.94469 -1e-5,0.6298 -0.50041,1.19661 -1.5012,1.70045 -1.00081,0.47235 -2.30831,0.70852 -3.9225,0.70852 -1.16222,0 -2.1953,-0.1417 -3.09923,-0.4251 -0.87169,-0.28342 -1.61421,-0.85023 -2.2276,-1.70047 -0.6134,-0.85021 -1.08151,-2.04684 -1.40434,-3.58984 -0.32284,-1.54299 -0.48427,-3.55834 -0.48427,-6.04604 0,-2.83407 0.25828,-5.0856 0.77482,-6.75457 0.54883,-1.70042 1.24292,-2.99152 2.0823,-3.87324 0.83938,-0.91319 1.77561,-1.49576 2.8087,-1.7477 1.03307,-0.28337 2.05001,-0.42508 3.05083,-0.42511 1.12993,3e-5 2.08229,0.20471 2.85713,0.61404 0.77478,0.3779 1.1622,0.88175 1.16221,1.51152" />
    <path
       inkscape:connector-curvature="0"
       id="path3036"
       style="font-size:65.70617676px;font-style:normal;font-variant:normal;font-weight:normal;font-stretch:normal;text-align:center;line-height:125%;letter-spacing:0px;word-spacing:0px;text-anchor:middle;fill:#ffffff;fill-opacity:1;stroke:none;font-family:Yanone Kaffeesatz;-inkscape-font-specification:Yanone Kaffeesatz"
       d="m 125.38527,114.98448 c 0,-0.44083 0.0484,-0.77146 0.1453,-0.99195 0.12913,-0.25187 0.33896,-0.42506 0.62952,-0.51956 0.29055,-0.12593 0.69411,-0.18891 1.21065,-0.18894 0.51653,-0.0314 1.17836,-0.0473 1.98546,-0.0473 l 0,12.80062 c 0.80708,-0.66127 1.75947,-1.18083 2.85712,-1.55875 1.09765,-0.40934 2.163,-0.61402 3.19611,-0.61404 0.80708,2e-5 1.4689,0.11016 1.98545,0.33065 0.51653,0.22045 0.93622,0.5196 1.25909,0.89746 0.32282,0.37789 0.54879,0.81875 0.67795,1.32257 0.12912,0.47237 0.19369,0.9762 0.1937,1.5115 -1e-5,0.97621 -0.16143,1.87367 -0.48426,2.69239 -0.29058,0.78726 -0.64569,1.49577 -1.06536,2.12555 -0.41971,0.59833 -0.87169,1.11791 -1.35594,1.55876 -0.45197,0.40938 -0.82324,0.72428 -1.11378,0.9447 1.16221,0.50384 2.19528,1.41704 3.09926,2.73961 0.93621,1.32258 1.50118,3.07026 1.69489,5.24305 0.0323,0.25193 0.0484,0.50385 0.0484,0.75577 -3e-5,0.25191 -3e-5,0.51958 0,0.80298 -3e-5,0.75576 -0.0484,1.55875 -0.14529,2.40896 -0.0323,0.18895 -0.0807,0.34641 -0.14527,0.47236 -0.0323,0.0944 -0.19372,0.17321 -0.48427,0.23617 -0.29056,0.0314 -0.7264,0.0473 -1.3075,0.0473 -0.58111,0 -1.42049,0 -2.51814,0 0.0645,-0.53532 0.11297,-1.0549 0.14528,-1.55874 0.0323,-0.50382 0.0483,-0.99191 0.0483,-1.46427 -2e-5,-0.53532 -0.0323,-1.02342 -0.0969,-1.46427 -0.0323,-0.44087 -0.0807,-0.88171 -0.14529,-1.32258 -0.29056,-1.88937 -0.83939,-3.21195 -1.64649,-3.96774 -0.77481,-0.78721 -1.63033,-1.08637 -2.56655,-0.89744 -0.226,0.0631 -0.46812,0.14171 -0.7264,0.23618 -0.22598,0.0944 -0.45196,0.18894 -0.67795,0.28339 -0.25827,0.12597 -0.5004,0.25194 -0.72638,0.37787 l 0,9.02186 c -2e-5,0.18893 -0.0161,0.34639 -0.0484,0.47236 -0.0323,0.0944 -0.17757,0.17319 -0.43584,0.23615 -0.22599,0.0314 -0.6134,0.0473 -1.16221,0.0473 -0.54885,0 -1.32364,0 -2.32444,0 l 0,-32.96984 m 9.78201,14.2649 c -1e-5,-1.29106 -0.59726,-1.93661 -1.79176,-1.93662 -0.64568,1e-5 -1.32364,0.18896 -2.03388,0.56682 -0.67797,0.37788 -1.33979,0.94471 -1.98545,1.70043 l 0,5.85713 c 1.67875,-0.66128 3.06696,-1.48003 4.16463,-2.45623 1.09762,-1.00765 1.64645,-2.2515 1.64646,-3.73153" />
  </g>
</svg>
