<?xml version="1.0" encoding="UTF-8" standalone="no"?>
<svg
   xmlns:dc="http://purl.org/dc/elements/1.1/"
   xmlns:cc="http://creativecommons.org/ns#"
   xmlns:rdf="http://www.w3.org/1999/02/22-rdf-syntax-ns#"
   xmlns:svg="http://www.w3.org/2000/svg"
   xmlns="http://www.w3.org/2000/svg"
   xmlns:sodipodi="http://sodipodi.sourceforge.net/DTD/sodipodi-0.dtd"
   xmlns:inkscape="http://www.inkscape.org/namespaces/inkscape"
   class="title"
   viewBox="0 0 200 200"
   id="svg2"
   version="1.1"
   inkscape:version="0.48.4 r9939"
   width="100%"
   height="100%"
   sodipodi:docname="favicon.svg">
  <metadata
     id="metadata10">
    <rdf:RDF>
      <cc:Work
         rdf:about="">
        <dc:format>image/svg+xml</dc:format>
        <dc:type
           rdf:resource="http://purl.org/dc/dcmitype/StillImage" />
        <dc:title />
      </cc:Work>
    </rdf:RDF>
  </metadata>
  <defs
     id="defs8" />
  <sodipodi:namedview
     pagecolor="#ffffff"
     bordercolor="#666666"
     borderopacity="1"
     objecttolerance="10"
     gridtolerance="10"
     guidetolerance="10"
     inkscape:pageopacity="0"
     inkscape:pageshadow="2"
     inkscape:window-width="1855"
     inkscape:window-height="1056"
     id="namedview6"
     showgrid="true"
     inkscape:zoom="2.8284271"
     inkscape:cx="271.14672"
     inkscape:cy="115.32847"
     inkscape:window-x="65"
     inkscape:window-y="24"
     inkscape:window-maximized="1"
     inkscape:current-layer="svg2">
    <inkscape:grid
       type="xygrid"
       id="grid3066" />
  </sodipodi:namedview>
  <g
     id="g3089"
     transform="matrix(1.0679222,0,0,1.0679222,-9.1153552,-6.1583235)" />
  <g
     id="g2989">
    <path
       sodipodi:type="arc"
       style="fill:#000000;fill-opacity:1;stroke:#000000;stroke-width:1.20000005000000010;stroke-miterlimit:10;stroke-opacity:1;stroke-dasharray:none;stroke-dashoffset:0"
       id="path3009"
       sodipodi:cx="112.28814"
       sodipodi:cy="109.32204"
       sodipodi:rx="82.627121"
       sodipodi:ry="81.355934"
       d="m 194.91526,109.32204 c 0,44.93164 -36.99342,81.35593 -82.62712,81.35593 -45.633699,0 -82.627122,-36.42429 -82.627122,-81.35593 0,-44.931645 36.993423,-81.355937 82.627122,-81.355937 45.6337,0 82.62712,36.424292 82.62712,81.355937 z"
       transform="matrix(1.1652547,0,0,1.178398,-30.452355,-30.001011)" />
    <g
       transform="matrix(6.920577,0,0,5.9554187,-314.73508,-433.39314)"
       style="font-size:40px;font-style:normal;font-variant:normal;font-weight:normal;font-stretch:normal;line-height:125%;letter-spacing:0px;word-spacing:0px;fill:#ffffff;fill-opacity:1;stroke:none;font-family:UnBatang;-inkscape-font-specification:UnBatang"
       id="flowRoot2994">
      <path
         d="m 72.163523,81.336538 c -0.720019,-0.639974 -2.185177,-0.924913 -4.478492,-0.92494 l -2.36,0 0,22.560002 c -1.3e-5,0.82667 -0.03969,1.1292 0.09366,1.3692 -0.43349,0.16791 -1.011478,0.50375 -1.733961,0.67166 -1.011476,0.33582 -2.042144,0.47226 -2.600939,0.52145 0.613324,-0.16 1.147898,-0.66898 1.281241,-0.96231 0.133323,-0.24 0.19999,-0.77333 0.2,-1.6 l 0,-22.560002 -2.36,0 c -2.293339,2.7e-5 -3.813338,0.320026 -4.56,0.96 -0.720003,0.613358 -1.200002,2.040024 -1.44,4.28 l -1.2,0 0,-6.64 17.760065,-0.02586 c 0.192662,0.279857 0.647946,0.936646 0.93694,1.440389"
         id="path2997"
         inkscape:connector-curvature="0"
         sodipodi:nodetypes="ccccccccccccccccc"
         style="fill:#ffffff;fill-opacity:1" />
    </g>
  </g>
</svg>
