<?xml version="1.0" encoding="UTF-8" standalone="no"?>
<svg
   xmlns:dc="http://purl.org/dc/elements/1.1/"
   xmlns:cc="http://creativecommons.org/ns#"
   xmlns:rdf="http://www.w3.org/1999/02/22-rdf-syntax-ns#"
   xmlns:svg="http://www.w3.org/2000/svg"
   xmlns="http://www.w3.org/2000/svg"
   xmlns:sodipodi="http://sodipodi.sourceforge.net/DTD/sodipodi-0.dtd"
   xmlns:inkscape="http://www.inkscape.org/namespaces/inkscape"
   class="title"
   viewBox="0 0 200 200"
   id="svg2"
   version="1.1"
   inkscape:version="0.48.4 r9939"
   width="100%"
   height="100%"
   sodipodi:docname="favicon.svg">
  <metadata
     id="metadata10">
    <rdf:RDF>
      <cc:Work
         rdf:about="">
        <dc:format>image/svg+xml</dc:format>
        <dc:type
           rdf:resource="http://purl.org/dc/dcmitype/StillImage" />
        <dc:title />
      </cc:Work>
    </rdf:RDF>
  </metadata>
  <defs
     id="defs8" />
  <sodipodi:namedview
     pagecolor="#ffffff"
     bordercolor="#666666"
     borderopacity="1"
     objecttolerance="10"
     gridtolerance="10"
     guidetolerance="10"
     inkscape:pageopacity="0"
     inkscape:pageshadow="2"
     inkscape:window-width="1855"
     inkscape:window-height="1056"
     id="namedview6"
     showgrid="true"
     inkscape:zoom="1.668772"
     inkscape:cx="-161.44293"
     inkscape:cy="32.464712"
     inkscape:window-x="65"
     inkscape:window-y="24"
     inkscape:window-maximized="1"
     inkscape:current-layer="svg2">
    <inkscape:grid
       type="xygrid"
       id="grid3066" />
  </sodipodi:namedview>
  <g
     id="g3089"
     transform="matrix(1.0679222,0,0,1.0679222,-9.1153552,-6.1583235)" />
  <g
     id="g2989">
    <path
       sodipodi:type="arc"
       style="fill:#000000;fill-opacity:1;stroke:#000000;stroke-width:1.20000005000000010;stroke-miterlimit:10;stroke-opacity:1;stroke-dasharray:none;stroke-dashoffset:0"
       id="path3009"
       sodipodi:cx="112.28814"
       sodipodi:cy="109.32204"
       sodipodi:rx="82.627121"
       sodipodi:ry="81.355934"
       d="m 194.91526,109.32204 c 0,44.93164 -36.99342,81.35593 -82.62712,81.35593 -45.633699,0 -82.627122,-36.42429 -82.627122,-81.35593 0,-44.931645 36.993423,-81.355937 82.627122,-81.355937 45.6337,0 82.62712,36.424292 82.62712,81.355937 z"
       transform="matrix(1.1652547,0,0,1.178398,-30.452355,-30.001011)" />
    <g
       transform="matrix(6.920577,0,0,5.9554187,-314.73508,-433.39314)"
       style="font-size:40px;font-style:normal;font-variant:normal;font-weight:normal;font-stretch:normal;line-height:125%;letter-spacing:0px;word-spacing:0px;fill:#ffffff;fill-opacity:1;stroke:none;font-family:UnBatang;-inkscape-font-specification:UnBatang"
       id="flowRoot2994">
      <path
         d="m 74.885,85.651598 -1.2,0 c -0.240021,-2.239976 -0.733354,-3.666642 -1.48,-4.28 -0.720019,-0.639974 -2.226685,-0.959973 -4.52,-0.96 l -2.36,0 0,22.560002 c -1.3e-5,0.82667 0.06665,1.36 0.2,1.6 0.13332,0.29333 0.493319,0.52 1.08,0.68 0.613318,0.16 1.186651,0.24 1.72,0.24 0.559983,0 1.026649,0.0133 1.4,0.04 l 0,1.16 -11.56,0 0,-1.16 c 0.373327,-0.0267 0.82666,-0.04 1.36,-0.04 0.559992,0 1.133325,-0.08 1.72,-0.24 0.613324,-0.16 0.986657,-0.38667 1.12,-0.68 0.133323,-0.24 0.19999,-0.77333 0.2,-1.6 l 0,-22.560002 -2.36,0 c -2.293339,2.7e-5 -3.813338,0.320026 -4.56,0.96 -0.720003,0.613358 -1.200002,2.040024 -1.44,4.28 l -1.2,0 0,-6.64 21.88,0 0,6.64"
         style=""
         id="path2997" />
    </g>
  </g>
</svg>
